<svg width="159" height="51" viewBox="0 0 159 51" fill="none" xmlns="http://www.w3.org/2000/svg">
<path d="M0.24 13L3.48 4.48H4.884L8.124 13H6.9L6.06 10.708H2.22L1.38 13H0.24ZM2.58 9.748H5.712L4.152 5.464L2.58 9.748ZM10.2442 13.156C9.04425 13.156 8.31225 12.352 8.31225 10.972V7.06H9.40425V10.744C9.40425 11.716 9.78825 12.196 10.5322 12.196C11.3843 12.196 11.9722 11.428 12.2123 10.492V7.06H13.3043V13H12.2123V11.62C11.9363 12.352 11.3482 13.156 10.2442 13.156ZM17.1606 15.496C15.7206 15.496 14.5446 14.8 14.3526 13.66H15.4806C15.6126 14.272 16.2846 14.62 17.1366 14.62C18.2766 14.62 18.9246 13.936 18.9246 12.628V11.32C18.5166 12.208 17.8206 12.976 16.6446 12.976C15.1326 12.976 14.0766 11.716 14.0766 9.952C14.0766 8.164 15.1446 6.904 16.6446 6.904C17.8086 6.904 18.5046 7.672 18.9246 8.548V7.06H20.0046V12.52C20.0046 14.416 18.9486 15.496 17.1606 15.496ZM16.8486 12.028C17.8806 12.028 18.6126 11.092 18.9606 9.94C18.6246 8.788 17.8806 7.84 16.8486 7.84C15.8646 7.84 15.1686 8.68 15.1686 9.952C15.1686 11.212 15.8526 12.028 16.8486 12.028ZM21.6631 13.096C21.2311 13.096 20.8831 12.772 20.8831 12.352C20.8831 11.944 21.2311 11.62 21.6631 11.62C22.0951 11.62 22.4431 11.944 22.4431 12.352C22.4431 12.772 22.0951 13.096 21.6631 13.096ZM25.7704 13C25.8664 10.192 27.1504 7.348 28.8424 5.452H24.9904V6.592H24.0184V4.48H29.9104V5.476C28.2664 7.372 27.0904 10.036 27.0184 13H25.7704ZM34.5214 5.032C34.0654 5.104 33.7534 5.428 33.7534 6.004V6.22H34.4854V7.612H33.0934V6.184C33.0934 5.14 33.6214 4.468 34.5214 4.396V5.032ZM35.2071 13C35.1711 11.68 35.8431 10.72 37.6071 9.496C39.0711 8.476 39.6111 7.756 39.6111 6.844C39.6111 6.016 39.1071 5.308 38.0151 5.308C36.9351 5.308 36.2751 6.088 36.2751 7.456H35.1831C35.1831 5.488 36.2751 4.288 38.0271 4.288C39.8751 4.288 40.7511 5.548 40.7511 6.808C40.7511 8.032 40.0671 8.98 38.3031 10.24C37.2711 10.96 36.7791 11.464 36.6351 11.992H40.7511V13H35.2071ZM44.57 13.192C43.706 13.192 42.962 12.916 42.422 12.364C41.774 11.704 41.402 10.648 41.402 9.172C41.402 6.052 42.818 4.288 44.942 4.288C45.83 4.288 46.574 4.66 46.97 4.948V6.172C46.658 5.788 45.902 5.332 45.002 5.332C43.478 5.332 42.53 6.664 42.494 8.836C42.746 8.176 43.478 7.348 44.774 7.348C46.49 7.348 47.45 8.608 47.45 10.168C47.45 11.764 46.382 13.192 44.57 13.192ZM44.498 12.208C45.65 12.208 46.382 11.332 46.382 10.204C46.382 9.088 45.65 8.272 44.498 8.272C43.346 8.272 42.614 9.136 42.614 10.204C42.614 11.296 43.334 12.208 44.498 12.208Z" fill="#7C7C7C"/>
<path d="M2.808 30.12C1.272 30.12 0.444 28.584 0.444 25.74C0.444 22.896 1.272 21.36 2.808 21.36C4.344 21.36 5.172 22.896 5.172 25.74C5.172 28.584 4.344 30.12 2.808 30.12ZM2.808 29.34C3.78 29.34 4.32 28.08 4.32 25.74C4.32 23.4 3.78 22.14 2.808 22.14C1.836 22.14 1.296 23.4 1.296 25.74C1.296 28.08 1.836 29.34 2.808 29.34ZM6.11897 30V24.06H6.89897V25.02C7.17497 24.336 7.61897 23.94 8.15897 23.94C8.81897 23.94 9.23897 24.456 9.23897 25.332V30H8.44697V25.536C8.44697 24.996 8.26697 24.72 7.90697 24.72C7.47497 24.72 7.13897 25.128 6.89897 25.908V30H6.11897ZM11.8606 30.12C10.7686 30.12 10.1926 29.064 10.1926 27.036C10.1926 24.984 10.7686 23.94 11.8246 23.94C12.8686 23.94 13.4326 24.96 13.4326 26.832V27.18H10.9606C10.9726 28.692 11.2726 29.388 11.8726 29.388C12.3406 29.388 12.6046 28.944 12.6886 28.056H13.4326C13.3126 29.4 12.7726 30.12 11.8606 30.12ZM10.9726 26.472H12.6646C12.6286 25.272 12.3406 24.66 11.8246 24.66C11.3206 24.66 11.0206 25.236 10.9726 26.472ZM16.702 30V22.26H15.31V21.48H18.922V22.26H17.53V30H16.702ZM19.6541 30V24.06H20.4461V30H19.6541ZM20.0621 22.764C19.7501 22.764 19.5341 22.524 19.5341 22.212C19.5341 21.9 19.7501 21.66 20.0621 21.66C20.3501 21.66 20.5661 21.9 20.5661 22.212C20.5661 22.524 20.3501 22.764 20.0621 22.764ZM21.5994 30V24.06H22.3794V25.02C22.6434 24.336 23.0754 23.94 23.6034 23.94C24.1674 23.94 24.5514 24.348 24.6354 25.056C24.8874 24.348 25.3314 23.94 25.8594 23.94C26.4954 23.94 26.9034 24.456 26.9034 25.332V30H26.1234V25.536C26.1234 24.996 25.9434 24.72 25.6074 24.72C25.1874 24.72 24.8634 25.128 24.6474 25.908V30H23.8554V25.536C23.8554 24.996 23.6874 24.72 23.3394 24.72C22.9194 24.72 22.6074 25.128 22.3794 25.908V30H21.5994ZM29.5208 30.12C28.4288 30.12 27.8528 29.064 27.8528 27.036C27.8528 24.984 28.4288 23.94 29.4848 23.94C30.5288 23.94 31.0928 24.96 31.0928 26.832V27.18H28.6208C28.6328 28.692 28.9328 29.388 29.5328 29.388C30.0008 29.388 30.2648 28.944 30.3488 28.056H31.0928C30.9728 29.4 30.4328 30.12 29.5208 30.12ZM28.6328 26.472H30.3248C30.2888 25.272 30.0008 24.66 29.4848 24.66C28.9808 24.66 28.6808 25.236 28.6328 26.472ZM33.6143 30V21.48H35.0303C36.4463 21.48 37.2023 22.332 37.2023 23.88C37.2023 25.428 36.4342 26.268 35.0183 26.268H34.4303V30H33.6143ZM34.9943 25.5C35.8823 25.5 36.3743 24.936 36.3743 23.88C36.3743 22.8 35.8943 22.248 35.0063 22.248H34.4303V25.5H34.9943ZM39.0151 30.12C38.3551 30.12 37.9351 29.604 37.9351 28.728V24.06H38.7271V28.524C38.7271 29.064 38.9071 29.34 39.2671 29.34C39.6991 29.34 40.0351 28.932 40.2751 28.152V24.06H41.0551V30H40.2751V29.004C40.0111 29.712 39.5671 30.12 39.0151 30.12ZM42.2127 30V24.06H42.9327V25.092C43.1487 24.336 43.4367 23.976 43.8687 23.976C44.0007 23.976 44.1087 24.012 44.1807 24.06L44.3127 24.924C44.2167 24.852 44.0847 24.804 43.9407 24.804C43.4607 24.804 43.1127 25.32 43.0047 26.172V30H42.2127ZM46.3137 30.12C45.2337 30.12 44.6457 29.064 44.6457 27.036C44.6457 24.996 45.2337 23.952 46.3137 23.952C46.7097 23.952 47.0217 24.084 47.2257 24.3V25.26C47.0577 24.936 46.7577 24.732 46.4097 24.732C45.7617 24.732 45.4377 25.5 45.4377 27.036C45.4377 28.56 45.7617 29.328 46.4097 29.328C46.7457 29.328 47.0337 29.148 47.2257 28.812V29.76C47.0217 29.976 46.6977 30.12 46.3137 30.12ZM48.1658 30V21.48H48.9458V25.02C49.2218 24.336 49.6658 23.94 50.2058 23.94C50.8658 23.94 51.2858 24.456 51.2858 25.332V30H50.4938V25.536C50.4938 24.996 50.3138 24.72 49.9538 24.72C49.5218 24.72 49.1858 25.128 48.9458 25.908V30H48.1658ZM53.4755 30.084C52.7555 30.084 52.2035 29.34 52.2035 28.32C52.2035 27.108 52.9475 26.292 54.0395 26.292H54.4595V25.824C54.4595 25.08 54.2195 24.708 53.7035 24.708C53.2115 24.708 52.7555 25.032 52.4315 25.584V24.624C52.7435 24.204 53.2715 23.94 53.8235 23.94C54.7355 23.94 55.2275 24.612 55.2275 25.8V29.484C55.2275 29.676 55.2395 29.844 55.2515 30H54.4835V29.208C54.2795 29.748 53.9315 30.084 53.4755 30.084ZM53.6315 29.364C54.0035 29.364 54.2915 28.968 54.4595 28.344V26.988H54.0635C53.3795 26.988 52.9715 27.48 52.9715 28.284C52.9715 28.944 53.2355 29.364 53.6315 29.364ZM57.2573 30.12C56.8373 30.12 56.4173 29.928 56.1772 29.616V28.596C56.4053 29.04 56.8253 29.34 57.2333 29.34C57.6533 29.34 57.9413 28.968 57.9413 28.416C57.9413 28.044 57.8573 27.78 57.2812 27.348L56.9933 27.132C56.4173 26.7 56.1772 26.256 56.1772 25.584C56.1772 24.612 56.7773 23.94 57.6173 23.94C57.9773 23.94 58.3133 24.072 58.5293 24.288V25.2C58.3253 24.912 57.9773 24.708 57.6653 24.708C57.2453 24.708 56.9573 25.044 56.9573 25.548C56.9573 25.92 57.0533 26.148 57.6293 26.58L57.9173 26.796C58.4933 27.228 58.7213 27.696 58.7213 28.38C58.7213 29.4 58.1213 30.12 57.2573 30.12ZM61.0911 30.12C59.9991 30.12 59.4231 29.064 59.4231 27.036C59.4231 24.984 59.9991 23.94 61.0551 23.94C62.0991 23.94 62.6631 24.96 62.6631 26.832V27.18H60.1911C60.2031 28.692 60.5031 29.388 61.1031 29.388C61.5711 29.388 61.8351 28.944 61.9191 28.056H62.6631C62.5431 29.4 62.0031 30.12 61.0911 30.12ZM60.2031 26.472H61.8951C61.8591 25.272 61.5711 24.66 61.0551 24.66C60.5511 24.66 60.2511 25.236 60.2031 26.472ZM65.9325 30V22.26H64.5405V21.48H68.1525V22.26H66.7605V30H65.9325ZM69.8104 30.12C68.7064 30.12 68.1184 29.064 68.1184 27.024C68.1184 24.984 68.7064 23.94 69.8104 23.94C70.9264 23.94 71.5144 24.984 71.5144 27.024C71.5144 29.064 70.9264 30.12 69.8104 30.12ZM69.8104 29.364C70.4224 29.364 70.7224 28.632 70.7224 27.024C70.7224 25.428 70.4224 24.696 69.8104 24.696C69.1984 24.696 68.8984 25.428 68.8984 27.024C68.8984 28.632 69.1984 29.364 69.8104 29.364ZM74.4865 30.108C73.9225 30.108 73.5265 29.664 73.2505 28.788V32.328H72.4705V24.06H73.2505V25.272C73.5265 24.396 73.9225 23.952 74.4865 23.952C75.3865 23.952 75.8905 25.032 75.8905 27.024C75.8905 29.028 75.3865 30.108 74.4865 30.108ZM74.3305 29.364C74.8105 29.364 75.0985 28.548 75.0985 27.024C75.0985 25.512 74.8105 24.696 74.3305 24.696C73.8265 24.696 73.3945 25.596 73.2025 27.024C73.3945 28.464 73.8265 29.364 74.3305 29.364ZM76.7451 27.168V26.364H78.6651V27.168H76.7451ZM80.769 30.12C80.109 30.12 79.689 29.604 79.689 28.728V24.06H80.481V28.524C80.481 29.064 80.661 29.34 81.021 29.34C81.453 29.34 81.789 28.932 82.029 28.152V24.06H82.809V30H82.029V29.004C81.765 29.712 81.321 30.12 80.769 30.12ZM85.9826 30.108C85.4186 30.108 85.0226 29.664 84.7466 28.788V32.328H83.9666V24.06H84.7466V25.272C85.0226 24.396 85.4186 23.952 85.9826 23.952C86.8826 23.952 87.3866 25.032 87.3866 27.024C87.3866 29.028 86.8826 30.108 85.9826 30.108ZM85.8266 29.364C86.3066 29.364 86.5946 28.548 86.5946 27.024C86.5946 25.512 86.3066 24.696 85.8266 24.696C85.3226 24.696 84.8906 25.596 84.6986 27.024C84.8906 28.464 85.3226 29.364 85.8266 29.364ZM90.1271 32.328L90.7871 29.676L89.3591 24.06H90.1751L91.1831 28.368L92.2151 24.06H92.9951L90.8951 32.328H90.1271ZM95.158 30.12C94.054 30.12 93.466 29.064 93.466 27.024C93.466 24.984 94.054 23.94 95.158 23.94C96.274 23.94 96.862 24.984 96.862 27.024C96.862 29.064 96.274 30.12 95.158 30.12ZM95.158 29.364C95.77 29.364 96.07 28.632 96.07 27.024C96.07 25.428 95.77 24.696 95.158 24.696C94.546 24.696 94.246 25.428 94.246 27.024C94.246 28.632 94.546 29.364 95.158 29.364ZM98.8862 30.12C98.2262 30.12 97.8062 29.604 97.8062 28.728V24.06H98.5982V28.524C98.5982 29.064 98.7782 29.34 99.1382 29.34C99.5702 29.34 99.9062 28.932 100.146 28.152V24.06H100.926V30H100.146V29.004C99.8822 29.712 99.4382 30.12 98.8862 30.12ZM102.084 30V24.06H102.804V25.092C103.02 24.336 103.308 23.976 103.74 23.976C103.872 23.976 103.98 24.012 104.052 24.06L104.184 24.924C104.088 24.852 103.956 24.804 103.812 24.804C103.332 24.804 102.984 25.32 102.876 26.172V30H102.084ZM107.018 30V22.26H105.626V21.48H109.238V22.26H107.846V30H107.018ZM110.896 30.12C109.792 30.12 109.204 29.064 109.204 27.024C109.204 24.984 109.792 23.94 110.896 23.94C112.012 23.94 112.6 24.984 112.6 27.024C112.6 29.064 112.012 30.12 110.896 30.12ZM110.896 29.364C111.508 29.364 111.808 28.632 111.808 27.024C111.808 25.428 111.508 24.696 110.896 24.696C110.284 24.696 109.984 25.428 109.984 27.024C109.984 28.632 110.284 29.364 110.896 29.364ZM113.556 30V21.48H114.336V26.688L115.992 24.06H116.88L115.548 26.088L116.892 30H116.076L115.02 26.856L114.336 27.888V30H113.556ZM118.958 30.12C117.866 30.12 117.29 29.064 117.29 27.036C117.29 24.984 117.866 23.94 118.922 23.94C119.966 23.94 120.53 24.96 120.53 26.832V27.18H118.058C118.07 28.692 118.37 29.388 118.97 29.388C119.438 29.388 119.702 28.944 119.786 28.056H120.53C120.41 29.4 119.87 30.12 118.958 30.12ZM118.07 26.472H119.762C119.726 25.272 119.438 24.66 118.922 24.66C118.418 24.66 118.118 25.236 118.07 26.472ZM121.502 30V24.06H122.282V25.02C122.558 24.336 123.002 23.94 123.542 23.94C124.202 23.94 124.622 24.456 124.622 25.332V30H123.83V25.536C123.83 24.996 123.65 24.72 123.29 24.72C122.858 24.72 122.522 25.128 122.282 25.908V30H121.502ZM126.667 30.12C126.247 30.12 125.827 29.928 125.587 29.616V28.596C125.815 29.04 126.235 29.34 126.643 29.34C127.063 29.34 127.351 28.968 127.351 28.416C127.351 28.044 127.267 27.78 126.691 27.348L126.403 27.132C125.827 26.7 125.587 26.256 125.587 25.584C125.587 24.612 126.187 23.94 127.027 23.94C127.387 23.94 127.723 24.072 127.939 24.288V25.2C127.735 24.912 127.387 24.708 127.075 24.708C126.655 24.708 126.367 25.044 126.367 25.548C126.367 25.92 126.463 26.148 127.039 26.58L127.327 26.796C127.903 27.228 128.131 27.696 128.131 28.38C128.131 29.4 127.531 30.12 126.667 30.12ZM130.707 22.812C130.707 21.948 131.115 21.372 131.799 21.372C132.087 21.372 132.339 21.48 132.459 21.576L132.567 22.344C132.459 22.2 132.243 22.116 132.027 22.116C131.667 22.116 131.499 22.38 131.499 22.848V24.06H132.507V24.792H131.499V30H130.707V24.792H130.023V24.06H130.707V22.812ZM134.603 30.12C133.499 30.12 132.911 29.064 132.911 27.024C132.911 24.984 133.499 23.94 134.603 23.94C135.719 23.94 136.307 24.984 136.307 27.024C136.307 29.064 135.719 30.12 134.603 30.12ZM134.603 29.364C135.215 29.364 135.515 28.632 135.515 27.024C135.515 25.428 135.215 24.696 134.603 24.696C133.991 24.696 133.691 25.428 133.691 27.024C133.691 28.632 133.991 29.364 134.603 29.364ZM137.264 30V24.06H137.984V25.092C138.2 24.336 138.488 23.976 138.92 23.976C139.052 23.976 139.16 24.012 139.232 24.06L139.364 24.924C139.268 24.852 139.136 24.804 138.992 24.804C138.512 24.804 138.164 25.32 138.056 26.172V30H137.264ZM140.922 30L142.71 21.48H143.766L145.554 30H144.726L144.258 27.684H142.182L141.714 30H140.922ZM142.338 26.916H144.114L143.226 22.488L142.338 26.916ZM146.442 30V21.48H147.258V30H146.442ZM0.708 47V38.48H3.48V39.248H1.524V42.284H3.276V43.052H1.524V47H0.708ZM5.63794 47.12C4.54594 47.12 3.96994 46.064 3.96994 44.036C3.96994 41.984 4.54594 40.94 5.60194 40.94C6.64594 40.94 7.20994 41.96 7.20994 43.832V44.18H4.73794C4.74994 45.692 5.04994 46.388 5.64994 46.388C6.11794 46.388 6.38194 45.944 6.46594 45.056H7.20994C7.08994 46.4 6.54994 47.12 5.63794 47.12ZM4.74994 43.472H6.44194C6.40594 42.272 6.11794 41.66 5.60194 41.66C5.09794 41.66 4.79794 42.236 4.74994 43.472ZM9.22547 47.084C8.50547 47.084 7.95347 46.34 7.95347 45.32C7.95347 44.108 8.69747 43.292 9.78947 43.292H10.2095V42.824C10.2095 42.08 9.96947 41.708 9.45347 41.708C8.96147 41.708 8.50547 42.032 8.18147 42.584V41.624C8.49347 41.204 9.02147 40.94 9.57347 40.94C10.4855 40.94 10.9775 41.612 10.9775 42.8V46.484C10.9775 46.676 10.9895 46.844 11.0015 47H10.2335V46.208C10.0295 46.748 9.68147 47.084 9.22547 47.084ZM9.38147 46.364C9.75347 46.364 10.0415 45.968 10.2095 45.344V43.988H9.81347C9.12947 43.988 8.72147 44.48 8.72147 45.284C8.72147 45.944 8.98547 46.364 9.38147 46.364ZM13.4753 47.096C12.7673 47.096 12.3833 46.628 12.3833 45.788V41.792H11.6633V41.372L13.1633 39.896H13.1753V41.06H14.1953V41.792H13.1753V45.656C13.1753 46.172 13.3553 46.328 13.6913 46.328C13.9193 46.328 14.1473 46.256 14.3273 46.1L14.1713 46.88C14.0393 47.012 13.7753 47.096 13.4753 47.096ZM16.1284 47.12C15.4684 47.12 15.0484 46.604 15.0484 45.728V41.06H15.8404V45.524C15.8404 46.064 16.0204 46.34 16.3804 46.34C16.8124 46.34 17.1484 45.932 17.3884 45.152V41.06H18.1684V47H17.3884V46.004C17.1244 46.712 16.6804 47.12 16.1284 47.12ZM19.326 47V41.06H20.046V42.092C20.262 41.336 20.55 40.976 20.982 40.976C21.114 40.976 21.222 41.012 21.294 41.06L21.426 41.924C21.33 41.852 21.198 41.804 21.054 41.804C20.574 41.804 20.226 42.32 20.118 43.172V47H19.326ZM23.427 47.12C22.335 47.12 21.759 46.064 21.759 44.036C21.759 41.984 22.335 40.94 23.391 40.94C24.435 40.94 24.999 41.96 24.999 43.832V44.18H22.527C22.539 45.692 22.839 46.388 23.439 46.388C23.907 46.388 24.171 45.944 24.255 45.056H24.999C24.879 46.4 24.339 47.12 23.427 47.12ZM22.539 43.472H24.231C24.195 42.272 23.907 41.66 23.391 41.66C22.887 41.66 22.587 42.236 22.539 43.472ZM26.8705 47.12C26.4505 47.12 26.0305 46.928 25.7905 46.616V45.596C26.0185 46.04 26.4385 46.34 26.8465 46.34C27.2665 46.34 27.5545 45.968 27.5545 45.416C27.5545 45.044 27.4705 44.78 26.8945 44.348L26.6065 44.132C26.0305 43.7 25.7905 43.256 25.7905 42.584C25.7905 41.612 26.3905 40.94 27.2305 40.94C27.5905 40.94 27.9265 41.072 28.1425 41.288V42.2C27.9385 41.912 27.5905 41.708 27.2785 41.708C26.8585 41.708 26.5705 42.044 26.5705 42.548C26.5705 42.92 26.6665 43.148 27.2425 43.58L27.5305 43.796C28.1065 44.228 28.3345 44.696 28.3345 45.38C28.3345 46.4 27.7345 47.12 26.8705 47.12Z" fill="white"/>
</svg>
