<svg width="159" height="59" viewBox="0 0 159 59" fill="none" xmlns="http://www.w3.org/2000/svg">
<path d="M0.11 13L2.7 5.9H4.53L7.1 13H5.55L5 11.36H2.13L1.57 13H0.11ZM2.53 10.17H4.6L3.57 7.12L2.53 10.17ZM8.64172 13.14C7.63172 13.14 7.00172 12.42 7.00172 11.27V8.02H8.39172V10.97C8.39172 11.63 8.64172 11.92 9.10172 11.92C9.66172 11.92 10.0717 11.35 10.1917 10.69V8.02H11.5717V13H10.1917V11.9C9.95172 12.54 9.48172 13.14 8.64172 13.14ZM14.7023 15.11C13.2923 15.11 12.3323 14.38 12.2023 13.43H13.6323C13.6923 13.79 14.0723 14.03 14.6623 14.03C15.3623 14.03 15.8323 13.66 15.8323 12.64V11.83C15.5123 12.45 14.9823 12.95 14.1023 12.95C12.8623 12.95 11.9823 11.93 11.9823 10.43C11.9823 8.91 12.8723 7.87 14.1023 7.87C14.9623 7.87 15.4923 8.36 15.8323 8.99V8.02H17.2023V12.49C17.2023 14.2 16.2523 15.11 14.7023 15.11ZM14.4523 11.78C15.1323 11.78 15.6323 11.17 15.8723 10.42C15.6323 9.63 15.1323 9.05 14.4523 9.05C13.8123 9.05 13.3723 9.55 13.3723 10.43C13.3723 11.3 13.8123 11.78 14.4523 11.78ZM18.523 13.1C18.033 13.1 17.633 12.74 17.633 12.26C17.633 11.8 18.033 11.44 18.523 11.44C19.003 11.44 19.403 11.8 19.403 12.26C19.403 12.74 19.003 13.1 18.523 13.1ZM23.1459 13.17C21.6759 13.17 20.5759 12.35 20.5259 10.85H21.9059C21.9359 11.52 22.3959 11.96 23.0759 11.96C23.7859 11.96 24.2459 11.44 24.2459 10.69C24.2459 9.94 23.7859 9.43 23.0759 9.43C22.5159 9.43 22.1359 9.75 21.9759 10.09H20.6359L21.0359 5.9H25.2559V7.17H22.1359L21.9359 9.11C22.1659 8.7 22.7159 8.31 23.4559 8.31C24.6959 8.31 25.6259 9.2 25.6259 10.6C25.6259 12.03 24.6959 13.17 23.1459 13.17ZM29.5549 6.56C29.1049 6.6 28.7749 6.89 28.7749 7.39V7.5H29.5549V8.96H27.9749V7.66C27.9749 6.58 28.5549 5.86 29.5549 5.84V6.56ZM29.9423 13C29.9123 11.7 30.4923 10.81 32.0423 9.74C33.0523 9.03 33.4223 8.55 33.4223 7.98C33.4223 7.44 33.1423 7.01 32.4223 7.01C31.7023 7.01 31.3023 7.5 31.3023 8.45H29.9323C29.9323 6.74 30.8523 5.73 32.4423 5.73C34.0823 5.73 34.8623 6.8 34.8623 7.9C34.8623 8.88 34.3423 9.64 32.9623 10.63C32.3323 11.08 31.9923 11.4 31.8123 11.73H34.8423V13H29.9423ZM37.812 13.17C36.342 13.17 35.242 12.35 35.192 10.85H36.572C36.602 11.52 37.062 11.96 37.742 11.96C38.452 11.96 38.912 11.44 38.912 10.69C38.912 9.94 38.452 9.43 37.742 9.43C37.182 9.43 36.802 9.75 36.642 10.09H35.302L35.702 5.9H39.922V7.17H36.802L36.602 9.11C36.832 8.7 37.382 8.31 38.122 8.31C39.362 8.31 40.292 9.2 40.292 10.6C40.292 12.03 39.362 13.17 37.812 13.17Z" fill="#7C7C7C"/>
<path d="M0.59 27V19.9H2.93V20.54H1.27V23.03H2.76V23.67H1.27V26.36H2.98V27H0.59ZM3.35172 27L4.45172 24.39L3.43172 22.05H4.12172L4.86172 23.82L5.58172 22.05H6.26172L5.24172 24.39L6.37172 27H5.67172L4.85172 25.01L4.03172 27H3.35172ZM8.07508 27.08C7.48508 27.08 7.16508 26.69 7.16508 25.99V22.66H6.56508V22.31L7.81508 21.08H7.82508V22.05H8.67508V22.66H7.82508V25.88C7.82508 26.31 7.97508 26.44 8.25508 26.44C8.44508 26.44 8.63508 26.38 8.78508 26.25L8.65508 26.9C8.54508 27.01 8.32508 27.08 8.07508 27.08ZM10.5772 27.1C9.66719 27.1 9.18719 26.22 9.18719 24.53C9.18719 22.82 9.66719 21.95 10.5472 21.95C11.4172 21.95 11.8872 22.8 11.8872 24.36V24.65H9.82719C9.83719 25.91 10.0872 26.49 10.5872 26.49C10.9772 26.49 11.1972 26.12 11.2672 25.38H11.8872C11.7872 26.5 11.3372 27.1 10.5772 27.1ZM9.83719 24.06H11.2472C11.2172 23.06 10.9772 22.55 10.5472 22.55C10.1272 22.55 9.87719 23.03 9.83719 24.06ZM12.6968 27V22.05H13.3468V22.85C13.5768 22.28 13.9468 21.95 14.3968 21.95C14.9468 21.95 15.2968 22.38 15.2968 23.11V27H14.6368V23.28C14.6368 22.83 14.4868 22.6 14.1868 22.6C13.8268 22.6 13.5468 22.94 13.3468 23.59V27H12.6968ZM17.2715 27.09C16.5215 27.09 16.1015 26.19 16.1015 24.52C16.1015 22.86 16.5215 21.96 17.2715 21.96C17.7415 21.96 18.0715 22.33 18.3015 23.06V19.9H18.9515V27H18.3015V25.99C18.0715 26.72 17.7415 27.09 17.2715 27.09ZM17.4015 26.47C17.8215 26.47 18.1815 25.72 18.3415 24.52C18.1815 23.33 17.8215 22.58 17.4015 22.58C17.0015 22.58 16.7615 23.26 16.7615 24.52C16.7615 25.79 17.0015 26.47 17.4015 26.47ZM21.1436 27.1C20.2336 27.1 19.7536 26.22 19.7536 24.53C19.7536 22.82 20.2336 21.95 21.1136 21.95C21.9836 21.95 22.4536 22.8 22.4536 24.36V24.65H20.3936C20.4036 25.91 20.6536 26.49 21.1536 26.49C21.5436 26.49 21.7636 26.12 21.8336 25.38H22.4536C22.3536 26.5 21.9036 27.1 21.1436 27.1ZM20.4036 24.06H21.8136C21.7836 23.06 21.5436 22.55 21.1136 22.55C20.6936 22.55 20.4436 23.03 20.4036 24.06ZM24.2832 27.09C23.5332 27.09 23.1132 26.19 23.1132 24.52C23.1132 22.86 23.5332 21.96 24.2832 21.96C24.7532 21.96 25.0832 22.33 25.3132 23.06V19.9H25.9632V27H25.3132V25.99C25.0832 26.72 24.7532 27.09 24.2832 27.09ZM24.4132 26.47C24.8332 26.47 25.1932 25.72 25.3532 24.52C25.1932 23.33 24.8332 22.58 24.4132 22.58C24.0132 22.58 23.7732 23.26 23.7732 24.52C23.7732 25.79 24.0132 26.47 24.4132 26.47ZM29.247 27.08C28.657 27.08 28.337 26.69 28.337 25.99V22.66H27.737V22.31L28.987 21.08H28.997V22.05H29.847V22.66H28.997V25.88C28.997 26.31 29.147 26.44 29.427 26.44C29.617 26.44 29.807 26.38 29.957 26.25L29.827 26.9C29.717 27.01 29.497 27.08 29.247 27.08ZM30.5679 27V19.9H31.2179V22.85C31.4479 22.28 31.8179 21.95 32.2679 21.95C32.8179 21.95 33.1679 22.38 33.1679 23.11V27H32.5079V23.28C32.5079 22.83 32.3579 22.6 32.0579 22.6C31.6979 22.6 31.4179 22.94 31.2179 23.59V27H30.5679ZM35.3526 27.1C34.4426 27.1 33.9626 26.22 33.9626 24.53C33.9626 22.82 34.4426 21.95 35.3226 21.95C36.1926 21.95 36.6626 22.8 36.6626 24.36V24.65H34.6026C34.6126 25.91 34.8626 26.49 35.3626 26.49C35.7526 26.49 35.9726 26.12 36.0426 25.38H36.6626C36.5626 26.5 36.1126 27.1 35.3526 27.1ZM34.6126 24.06H36.0226C35.9926 23.06 35.7526 22.55 35.3226 22.55C34.9026 22.55 34.6526 23.03 34.6126 24.06ZM39.5238 27.07C38.9238 27.07 38.4638 26.45 38.4638 25.6C38.4638 24.59 39.0838 23.91 39.9938 23.91H40.3438V23.52C40.3438 22.9 40.1438 22.59 39.7138 22.59C39.3038 22.59 38.9238 22.86 38.6538 23.32V22.52C38.9138 22.17 39.3538 21.95 39.8138 21.95C40.5738 21.95 40.9838 22.51 40.9838 23.5V26.57C40.9838 26.73 40.9938 26.87 41.0038 27H40.3638V26.34C40.1938 26.79 39.9038 27.07 39.5238 27.07ZM39.6538 26.47C39.9638 26.47 40.2038 26.14 40.3438 25.62V24.49H40.0138C39.4438 24.49 39.1038 24.9 39.1038 25.57C39.1038 26.12 39.3238 26.47 39.6538 26.47ZM42.9453 27.09C42.1953 27.09 41.7753 26.19 41.7753 24.52C41.7753 22.86 42.1953 21.96 42.9453 21.96C43.4153 21.96 43.7453 22.33 43.9753 23.06V19.9H44.6253V27H43.9753V25.99C43.7453 26.72 43.4153 27.09 42.9453 27.09ZM43.0753 26.47C43.4953 26.47 43.8553 25.72 44.0153 24.52C43.8553 23.33 43.4953 22.58 43.0753 22.58C42.6753 22.58 42.4353 23.26 42.4353 24.52C42.4353 25.79 42.6753 26.47 43.0753 26.47ZM46.6074 27.09C45.8574 27.09 45.4374 26.19 45.4374 24.52C45.4374 22.86 45.8574 21.96 46.6074 21.96C47.0774 21.96 47.4074 22.33 47.6374 23.06V19.9H48.2874V27H47.6374V25.99C47.4074 26.72 47.0774 27.09 46.6074 27.09ZM46.7374 26.47C47.1574 26.47 47.5174 25.72 47.6774 24.52C47.5174 23.33 47.1574 22.58 46.7374 22.58C46.3374 22.58 46.0974 23.26 46.0974 24.52C46.0974 25.79 46.3374 26.47 46.7374 26.47ZM49.1495 24.64V23.97H50.7495V24.64H49.1495ZM52.8628 27.1C51.9428 27.1 51.4528 26.22 51.4528 24.52C51.4528 22.82 51.9428 21.95 52.8628 21.95C53.7928 21.95 54.2828 22.82 54.2828 24.52C54.2828 26.22 53.7928 27.1 52.8628 27.1ZM52.8628 26.47C53.3728 26.47 53.6228 25.86 53.6228 24.52C53.6228 23.19 53.3728 22.58 52.8628 22.58C52.3528 22.58 52.1028 23.19 52.1028 24.52C52.1028 25.86 52.3528 26.47 52.8628 26.47ZM55.0796 27V22.05H55.7296V22.85C55.9596 22.28 56.3296 21.95 56.7796 21.95C57.3296 21.95 57.6796 22.38 57.6796 23.11V27H57.0196V23.28C57.0196 22.83 56.8696 22.6 56.5696 22.6C56.2096 22.6 55.9296 22.94 55.7296 23.59V27H55.0796ZM59.8159 27V22.05H60.4659V22.85C60.6859 22.28 61.0459 21.95 61.4859 21.95C61.9559 21.95 62.2759 22.29 62.3459 22.88C62.5559 22.29 62.9259 21.95 63.3659 21.95C63.8959 21.95 64.2359 22.38 64.2359 23.11V27H63.5859V23.28C63.5859 22.83 63.4359 22.6 63.1559 22.6C62.8059 22.6 62.5359 22.94 62.3559 23.59V27H61.6959V23.28C61.6959 22.83 61.5559 22.6 61.2659 22.6C60.9159 22.6 60.6559 22.94 60.4659 23.59V27H59.8159ZM66.437 27.1C65.517 27.1 65.027 26.22 65.027 24.52C65.027 22.82 65.517 21.95 66.437 21.95C67.367 21.95 67.857 22.82 67.857 24.52C67.857 26.22 67.367 27.1 66.437 27.1ZM66.437 26.47C66.947 26.47 67.197 25.86 67.197 24.52C67.197 23.19 66.947 22.58 66.437 22.58C65.927 22.58 65.677 23.19 65.677 24.52C65.677 25.86 65.927 26.47 66.437 26.47ZM69.6738 27.09C68.9238 27.09 68.5038 26.19 68.5038 24.52C68.5038 22.86 68.9238 21.96 69.6738 21.96C70.1438 21.96 70.4738 22.33 70.7038 23.06V19.9H71.3538V27H70.7038V25.99C70.4738 26.72 70.1438 27.09 69.6738 27.09ZM69.8038 26.47C70.2238 26.47 70.5838 25.72 70.7438 24.52C70.5838 23.33 70.2238 22.58 69.8038 22.58C69.4038 22.58 69.1638 23.26 69.1638 24.52C69.1638 25.79 69.4038 26.47 69.8038 26.47ZM73.5459 27.1C72.6359 27.1 72.1559 26.22 72.1559 24.53C72.1559 22.82 72.6359 21.95 73.5159 21.95C74.3859 21.95 74.8559 22.8 74.8559 24.36V24.65H72.7959C72.8059 25.91 73.0559 26.49 73.5559 26.49C73.9459 26.49 74.1659 26.12 74.2359 25.38H74.8559C74.7559 26.5 74.3059 27.1 73.5459 27.1ZM72.8059 24.06H74.2159C74.1859 23.06 73.9459 22.55 73.5159 22.55C73.0959 22.55 72.8459 23.03 72.8059 24.06ZM75.6655 27V19.9H76.3155V27H75.6655ZM79.5985 27.08C79.0085 27.08 78.6885 26.69 78.6885 25.99V22.66H78.0885V22.31L79.3385 21.08H79.3485V22.05H80.1985V22.66H79.3485V25.88C79.3485 26.31 79.4985 26.44 79.7785 26.44C79.9685 26.44 80.1585 26.38 80.3085 26.25L80.1785 26.9C80.0685 27.01 79.8485 27.08 79.5985 27.08ZM82.1206 27.1C81.2006 27.1 80.7106 26.22 80.7106 24.52C80.7106 22.82 81.2006 21.95 82.1206 21.95C83.0506 21.95 83.5406 22.82 83.5406 24.52C83.5406 26.22 83.0506 27.1 82.1206 27.1ZM82.1206 26.47C82.6306 26.47 82.8806 25.86 82.8806 24.52C82.8806 23.19 82.6306 22.58 82.1206 22.58C81.6106 22.58 81.3606 23.19 81.3606 24.52C81.3606 25.86 81.6106 26.47 82.1206 26.47ZM85.7391 21.01C85.7391 20.29 86.0791 19.81 86.6491 19.81C86.8891 19.81 87.0991 19.9 87.1991 19.98L87.2891 20.62C87.1991 20.5 87.0191 20.43 86.8391 20.43C86.5391 20.43 86.3991 20.65 86.3991 21.04V22.05H87.2391V22.66H86.3991V27H85.7391V22.66H85.1691V22.05H85.7391V21.01ZM88.6156 27.07C88.0156 27.07 87.5556 26.45 87.5556 25.6C87.5556 24.59 88.1756 23.91 89.0856 23.91H89.4356V23.52C89.4356 22.9 89.2356 22.59 88.8056 22.59C88.3956 22.59 88.0156 22.86 87.7456 23.32V22.52C88.0056 22.17 88.4456 21.95 88.9056 21.95C89.6656 21.95 90.0756 22.51 90.0756 23.5V26.57C90.0756 26.73 90.0856 26.87 90.0956 27H89.4556V26.34C89.2856 26.79 88.9956 27.07 88.6156 27.07ZM88.7456 26.47C89.0556 26.47 89.2956 26.14 89.4356 25.62V24.49H89.1056C88.5356 24.49 88.1956 24.9 88.1956 25.57C88.1956 26.12 88.4156 26.47 88.7456 26.47ZM91.0171 27V22.05H91.6671V22.85C91.8871 22.28 92.2471 21.95 92.6871 21.95C93.1571 21.95 93.4771 22.29 93.5471 22.88C93.7571 22.29 94.1271 21.95 94.5671 21.95C95.0971 21.95 95.4371 22.38 95.4371 23.11V27H94.7871V23.28C94.7871 22.83 94.6371 22.6 94.3571 22.6C94.0071 22.6 93.7371 22.94 93.5571 23.59V27H92.8971V23.28C92.8971 22.83 92.7571 22.6 92.4671 22.6C92.1171 22.6 91.8571 22.94 91.6671 23.59V27H91.0171ZM96.3882 27V22.05H97.0482V27H96.3882ZM96.7282 20.97C96.4682 20.97 96.2882 20.77 96.2882 20.51C96.2882 20.25 96.4682 20.05 96.7282 20.05C96.9682 20.05 97.1482 20.25 97.1482 20.51C97.1482 20.77 96.9682 20.97 96.7282 20.97ZM98.0093 27V19.9H98.6593V27H98.0093ZM99.9106 28.94L100.461 26.73L99.2706 22.05H99.9506L100.791 25.64L101.651 22.05H102.301L100.551 28.94H99.9106ZM105.773 27.09C105.303 27.09 104.973 26.72 104.743 25.99V28.94H104.093V22.05H104.743V23.06C104.973 22.33 105.303 21.96 105.773 21.96C106.523 21.96 106.943 22.86 106.943 24.52C106.943 26.19 106.523 27.09 105.773 27.09ZM105.643 26.47C106.043 26.47 106.283 25.79 106.283 24.52C106.283 23.26 106.043 22.58 105.643 22.58C105.223 22.58 104.863 23.33 104.703 24.52C104.863 25.72 105.223 26.47 105.643 26.47ZM107.755 27V19.9H108.405V27H107.755ZM110.237 27.07C109.637 27.07 109.177 26.45 109.177 25.6C109.177 24.59 109.797 23.91 110.707 23.91H111.057V23.52C111.057 22.9 110.857 22.59 110.427 22.59C110.017 22.59 109.637 22.86 109.367 23.32V22.52C109.627 22.17 110.067 21.95 110.527 21.95C111.287 21.95 111.697 22.51 111.697 23.5V26.57C111.697 26.73 111.707 26.87 111.717 27H111.077V26.34C110.907 26.79 110.617 27.07 110.237 27.07ZM110.367 26.47C110.677 26.47 110.917 26.14 111.057 25.62V24.49H110.727C110.157 24.49 109.817 24.9 109.817 25.57C109.817 26.12 110.037 26.47 110.367 26.47ZM112.638 27V22.05H113.288V22.85C113.518 22.28 113.888 21.95 114.338 21.95C114.888 21.95 115.238 22.38 115.238 23.11V27H114.578V23.28C114.578 22.83 114.428 22.6 114.128 22.6C113.768 22.6 113.488 22.94 113.288 23.59V27H112.638ZM116.943 27.1C116.593 27.1 116.243 26.94 116.043 26.68V25.83C116.233 26.2 116.583 26.45 116.923 26.45C117.273 26.45 117.513 26.14 117.513 25.68C117.513 25.37 117.443 25.15 116.963 24.79L116.723 24.61C116.243 24.25 116.043 23.88 116.043 23.32C116.043 22.51 116.543 21.95 117.243 21.95C117.543 21.95 117.823 22.06 118.003 22.24V23C117.833 22.76 117.543 22.59 117.283 22.59C116.933 22.59 116.693 22.87 116.693 23.29C116.693 23.6 116.773 23.79 117.253 24.15L117.493 24.33C117.973 24.69 118.163 25.08 118.163 25.65C118.163 26.5 117.663 27.1 116.943 27.1ZM118.798 27.88C119.108 27.83 119.258 27.59 119.258 27.18V27H118.828V26.12H119.648V27.09C119.648 27.79 119.358 28.19 118.798 28.26V27.88ZM121.535 27V19.9H122.185V27H121.535ZM124.376 27.1C123.466 27.1 122.986 26.22 122.986 24.53C122.986 22.82 123.466 21.95 124.346 21.95C125.216 21.95 125.686 22.8 125.686 24.36V24.65H123.626C123.636 25.91 123.886 26.49 124.386 26.49C124.776 26.49 124.996 26.12 125.066 25.38H125.686C125.586 26.5 125.136 27.1 124.376 27.1ZM123.636 24.06H125.046C125.016 23.06 124.776 22.55 124.346 22.55C123.926 22.55 123.676 23.03 123.636 24.06ZM127.597 27.08C127.007 27.08 126.687 26.69 126.687 25.99V22.66H126.087V22.31L127.337 21.08H127.347V22.05H128.347L129.337 21.08H129.347V22.05H130.197V22.66H129.347V25.88C129.347 26.31 129.507 26.44 129.787 26.44C129.977 26.44 130.157 26.38 130.317 26.25L130.187 26.9C130.067 27.01 129.847 27.08 129.607 27.08C129.007 27.08 128.697 26.69 128.697 25.99V22.66H127.347V25.88C127.347 26.31 127.497 26.44 127.777 26.44C127.967 26.44 128.157 26.38 128.307 26.25L128.177 26.9C128.067 27.01 127.837 27.08 127.597 27.08ZM130.929 27V22.05H131.589V27H130.929ZM131.269 20.97C131.009 20.97 130.829 20.77 130.829 20.51C130.829 20.25 131.009 20.05 131.269 20.05C131.509 20.05 131.689 20.25 131.689 20.51C131.689 20.77 131.509 20.97 131.269 20.97ZM132.55 27V22.05H133.2V22.85C133.43 22.28 133.8 21.95 134.25 21.95C134.8 21.95 135.15 22.38 135.15 23.11V27H134.49V23.28C134.49 22.83 134.34 22.6 134.04 22.6C133.68 22.6 133.4 22.94 133.2 23.59V27H132.55ZM137.415 29C136.675 29 136.185 28.55 136.085 27.69H136.735C136.805 28.17 137.055 28.4 137.415 28.4C137.905 28.4 138.155 27.95 138.155 27.02V25.99C137.925 26.72 137.595 27.09 137.125 27.09C136.375 27.09 135.955 26.19 135.955 24.52C135.955 22.86 136.375 21.96 137.125 21.96C137.595 21.96 137.925 22.33 138.155 23.06V22.05H138.805V26.97C138.805 28.31 138.335 29 137.415 29ZM137.255 26.47C137.675 26.47 138.035 25.72 138.195 24.52C138.035 23.33 137.675 22.58 137.255 22.58C136.855 22.58 136.615 23.26 136.615 24.52C136.615 25.79 136.855 26.47 137.255 26.47ZM142.629 27.09C142.159 27.09 141.829 26.72 141.599 25.99V28.94H140.949V22.05H141.599V23.06C141.829 22.33 142.159 21.96 142.629 21.96C143.379 21.96 143.799 22.86 143.799 24.52C143.799 26.19 143.379 27.09 142.629 27.09ZM142.499 26.47C142.899 26.47 143.139 25.79 143.139 24.52C143.139 23.26 142.899 22.58 142.499 22.58C142.079 22.58 141.719 23.33 141.559 24.52C141.719 25.72 142.079 26.47 142.499 26.47ZM144.611 27V19.9H145.261V27H144.611ZM147.092 27.07C146.492 27.07 146.032 26.45 146.032 25.6C146.032 24.59 146.652 23.91 147.562 23.91H147.912V23.52C147.912 22.9 147.712 22.59 147.282 22.59C146.872 22.59 146.492 22.86 146.222 23.32V22.52C146.482 22.17 146.922 21.95 147.382 21.95C148.142 21.95 148.552 22.51 148.552 23.5V26.57C148.552 26.73 148.562 26.87 148.572 27H147.932V26.34C147.762 26.79 147.472 27.07 147.092 27.07ZM147.222 26.47C147.532 26.47 147.772 26.14 147.912 25.62V24.49H147.582C147.012 24.49 146.672 24.9 146.672 25.57C146.672 26.12 146.892 26.47 147.222 26.47ZM149.494 27V22.05H150.144V22.85C150.374 22.28 150.744 21.95 151.194 21.95C151.744 21.95 152.094 22.38 152.094 23.11V27H151.434V23.28C151.434 22.83 151.284 22.6 150.984 22.6C150.624 22.6 150.344 22.94 150.144 23.59V27H149.494ZM0.48 41V36.05H1.13V36.85C1.35 36.28 1.71 35.95 2.15 35.95C2.62 35.95 2.94 36.29 3.01 36.88C3.22 36.29 3.59 35.95 4.03 35.95C4.56 35.95 4.9 36.38 4.9 37.11V41H4.25V37.28C4.25 36.83 4.1 36.6 3.82 36.6C3.47 36.6 3.2 36.94 3.02 37.59V41H2.36V37.28C2.36 36.83 2.22 36.6 1.93 36.6C1.58 36.6 1.32 36.94 1.13 37.59V41H0.48ZM6.72109 41.07C6.12109 41.07 5.66109 40.45 5.66109 39.6C5.66109 38.59 6.28109 37.91 7.19109 37.91H7.54109V37.52C7.54109 36.9 7.34109 36.59 6.91109 36.59C6.50109 36.59 6.12109 36.86 5.85109 37.32V36.52C6.11109 36.17 6.55109 35.95 7.01109 35.95C7.77109 35.95 8.18109 36.51 8.18109 37.5V40.57C8.18109 40.73 8.19109 40.87 8.20109 41H7.56109V40.34C7.39109 40.79 7.10109 41.07 6.72109 41.07ZM6.85109 40.47C7.16109 40.47 7.40109 40.14 7.54109 39.62V38.49H7.21109C6.64109 38.49 6.30109 38.9 6.30109 39.57C6.30109 40.12 6.52109 40.47 6.85109 40.47ZM9.12258 41V36.05H9.77258V36.85C10.0026 36.28 10.3726 35.95 10.8226 35.95C11.3726 35.95 11.7226 36.38 11.7226 37.11V41H11.0626V37.28C11.0626 36.83 10.9126 36.6 10.6126 36.6C10.2526 36.6 9.97258 36.94 9.77258 37.59V41H9.12258ZM13.5473 41.07C12.9473 41.07 12.4873 40.45 12.4873 39.6C12.4873 38.59 13.1073 37.91 14.0173 37.91H14.3673V37.52C14.3673 36.9 14.1673 36.59 13.7373 36.59C13.3273 36.59 12.9473 36.86 12.6773 37.32V36.52C12.9373 36.17 13.3773 35.95 13.8373 35.95C14.5973 35.95 15.0073 36.51 15.0073 37.5V40.57C15.0073 40.73 15.0173 40.87 15.0273 41H14.3873V40.34C14.2173 40.79 13.9273 41.07 13.5473 41.07ZM13.6773 40.47C13.9873 40.47 14.2273 40.14 14.3673 39.62V38.49H14.0373C13.4673 38.49 13.1273 38.9 13.1273 39.57C13.1273 40.12 13.3473 40.47 13.6773 40.47ZM17.2588 43C16.5188 43 16.0288 42.55 15.9288 41.69H16.5788C16.6488 42.17 16.8988 42.4 17.2588 42.4C17.7488 42.4 17.9988 41.95 17.9988 41.02V39.99C17.7688 40.72 17.4388 41.09 16.9688 41.09C16.2188 41.09 15.7987 40.19 15.7987 38.52C15.7987 36.86 16.2188 35.96 16.9688 35.96C17.4388 35.96 17.7688 36.33 17.9988 37.06V36.05H18.6488V40.97C18.6488 42.31 18.1788 43 17.2588 43ZM17.0988 40.47C17.5188 40.47 17.8788 39.72 18.0387 38.52C17.8788 37.33 17.5188 36.58 17.0988 36.58C16.6988 36.58 16.4588 37.26 16.4588 38.52C16.4588 39.79 16.6988 40.47 17.0988 40.47ZM20.8409 41.1C19.9309 41.1 19.4509 40.22 19.4509 38.53C19.4509 36.82 19.9309 35.95 20.8109 35.95C21.6809 35.95 22.1509 36.8 22.1509 38.36V38.65H20.0909C20.1009 39.91 20.3509 40.49 20.8509 40.49C21.2409 40.49 21.4609 40.12 21.5309 39.38H22.1509C22.0509 40.5 21.6009 41.1 20.8409 41.1ZM20.1009 38.06H21.5109C21.4809 37.06 21.2409 36.55 20.8109 36.55C20.3909 36.55 20.1409 37.03 20.1009 38.06ZM22.9605 41V36.05H23.5605V36.91C23.7405 36.28 23.9805 35.98 24.3405 35.98C24.4505 35.98 24.5405 36.01 24.6005 36.05L24.7105 36.77C24.6305 36.71 24.5205 36.67 24.4005 36.67C24.0005 36.67 23.7105 37.1 23.6205 37.81V41H22.9605ZM25.9663 41.1C25.6163 41.1 25.2663 40.94 25.0663 40.68V39.83C25.2563 40.2 25.6063 40.45 25.9463 40.45C26.2963 40.45 26.5363 40.14 26.5363 39.68C26.5363 39.37 26.4663 39.15 25.9863 38.79L25.7463 38.61C25.2663 38.25 25.0663 37.88 25.0663 37.32C25.0663 36.51 25.5663 35.95 26.2663 35.95C26.5663 35.95 26.8463 36.06 27.0263 36.24V37C26.8563 36.76 26.5663 36.59 26.3063 36.59C25.9563 36.59 25.7163 36.87 25.7163 37.29C25.7163 37.6 25.7963 37.79 26.2763 38.15L26.5163 38.33C26.9963 38.69 27.1863 39.08 27.1863 39.65C27.1863 40.5 26.6863 41.1 25.9663 41.1ZM30.0028 41.1C29.4528 41.1 29.1028 40.67 29.1028 39.94V36.05H29.7628V39.77C29.7628 40.22 29.9128 40.45 30.2128 40.45C30.5728 40.45 30.8528 40.11 31.0528 39.46V36.05H31.7028V41H31.0528V40.17C30.8328 40.76 30.4628 41.1 30.0028 41.1ZM32.6675 41V36.05H33.3175V36.85C33.5475 36.28 33.9175 35.95 34.3675 35.95C34.9175 35.95 35.2675 36.38 35.2675 37.11V41H34.6075V37.28C34.6075 36.83 34.4575 36.6 34.1575 36.6C33.7975 36.6 33.5175 36.94 33.3175 37.59V41H32.6675ZM36.2222 41V33.9H36.8722V41H36.2222ZM39.0835 41.1C38.1635 41.1 37.6735 40.22 37.6735 38.52C37.6735 36.82 38.1635 35.95 39.0835 35.95C40.0135 35.95 40.5035 36.82 40.5035 38.52C40.5035 40.22 40.0135 41.1 39.0835 41.1ZM39.0835 40.47C39.5935 40.47 39.8435 39.86 39.8435 38.52C39.8435 37.19 39.5935 36.58 39.0835 36.58C38.5735 36.58 38.3235 37.19 38.3235 38.52C38.3235 39.86 38.5735 40.47 39.0835 40.47ZM42.5303 41.1C41.6303 41.1 41.1403 40.22 41.1403 38.53C41.1403 36.83 41.6303 35.96 42.5303 35.96C42.8603 35.96 43.1203 36.07 43.2903 36.25V37.05C43.1503 36.78 42.9003 36.61 42.6103 36.61C42.0703 36.61 41.8003 37.25 41.8003 38.53C41.8003 39.8 42.0703 40.44 42.6103 40.44C42.8903 40.44 43.1303 40.29 43.2903 40.01V40.8C43.1203 40.98 42.8503 41.1 42.5303 41.1ZM44.0738 41V33.9H44.7238V38.24L46.1038 36.05H46.8438L45.7338 37.74L46.8538 41H46.1738L45.2938 38.38L44.7238 39.24V41H44.0738ZM49.4945 41.07C48.8945 41.07 48.4345 40.45 48.4345 39.6C48.4345 38.59 49.0545 37.91 49.9645 37.91H50.3145V37.52C50.3145 36.9 50.1145 36.59 49.6845 36.59C49.2745 36.59 48.8945 36.86 48.6245 37.32V36.52C48.8845 36.17 49.3245 35.95 49.7845 35.95C50.5445 35.95 50.9545 36.51 50.9545 37.5V40.57C50.9545 40.73 50.9645 40.87 50.9745 41H50.3345V40.34C50.1645 40.79 49.8745 41.07 49.4945 41.07ZM49.6245 40.47C49.9345 40.47 50.1745 40.14 50.3145 39.62V38.49H49.9845C49.4145 38.49 49.0745 38.9 49.0745 39.57C49.0745 40.12 49.2945 40.47 49.6245 40.47ZM52.786 41.1C52.236 41.1 51.886 40.67 51.886 39.94V36.05H52.546V39.77C52.546 40.22 52.696 40.45 52.996 40.45C53.356 40.45 53.636 40.11 53.836 39.46V36.05H54.486V41H53.836V40.17C53.616 40.76 53.246 41.1 52.786 41.1ZM56.4707 41.09C55.7207 41.09 55.3007 40.19 55.3007 38.52C55.3007 36.86 55.7207 35.96 56.4707 35.96C56.9407 35.96 57.2707 36.33 57.5007 37.06V33.9H58.1507V41H57.5007V39.99C57.2707 40.72 56.9407 41.09 56.4707 41.09ZM56.6007 40.47C57.0207 40.47 57.3807 39.72 57.5407 38.52C57.3807 37.33 57.0207 36.58 56.6007 36.58C56.2007 36.58 55.9607 37.26 55.9607 38.52C55.9607 39.79 56.2007 40.47 56.6007 40.47ZM59.1128 41V36.05H59.7728V41H59.1128ZM59.4528 34.97C59.1928 34.97 59.0128 34.77 59.0128 34.51C59.0128 34.25 59.1928 34.05 59.4528 34.05C59.6928 34.05 59.8728 34.25 59.8728 34.51C59.8728 34.77 59.6928 34.97 59.4528 34.97ZM61.9839 41.1C61.0639 41.1 60.5739 40.22 60.5739 38.52C60.5739 36.82 61.0639 35.95 61.9839 35.95C62.9139 35.95 63.4039 36.82 63.4039 38.52C63.4039 40.22 62.9139 41.1 61.9839 41.1ZM61.9839 40.47C62.4939 40.47 62.7439 39.86 62.7439 38.52C62.7439 37.19 62.4939 36.58 61.9839 36.58C61.4739 36.58 61.2239 37.19 61.2239 38.52C61.2239 39.86 61.4739 40.47 61.9839 40.47ZM65.8807 41.09C65.4107 41.09 65.0807 40.72 64.8507 39.99V41H64.2007V33.9H64.8507V37.06C65.0807 36.33 65.4107 35.96 65.8807 35.96C66.6307 35.96 67.0507 36.86 67.0507 38.52C67.0507 40.19 66.6307 41.09 65.8807 41.09ZM65.7507 40.47C66.1507 40.47 66.3907 39.79 66.3907 38.52C66.3907 37.26 66.1507 36.58 65.7507 36.58C65.3307 36.58 64.9707 37.33 64.8107 38.52C64.9707 39.72 65.3307 40.47 65.7507 40.47ZM69.1128 41.1C68.1928 41.1 67.7028 40.22 67.7028 38.52C67.7028 36.82 68.1928 35.95 69.1128 35.95C70.0428 35.95 70.5328 36.82 70.5328 38.52C70.5328 40.22 70.0428 41.1 69.1128 41.1ZM69.1128 40.47C69.6228 40.47 69.8728 39.86 69.8728 38.52C69.8728 37.19 69.6228 36.58 69.1128 36.58C68.6028 36.58 68.3528 37.19 68.3528 38.52C68.3528 39.86 68.6028 40.47 69.1128 40.47ZM72.5796 41.1C71.6596 41.1 71.1696 40.22 71.1696 38.52C71.1696 36.82 71.6596 35.95 72.5796 35.95C73.5096 35.95 73.9996 36.82 73.9996 38.52C73.9996 40.22 73.5096 41.1 72.5796 41.1ZM72.5796 40.47C73.0896 40.47 73.3396 39.86 73.3396 38.52C73.3396 37.19 73.0896 36.58 72.5796 36.58C72.0696 36.58 71.8196 37.19 71.8196 38.52C71.8196 39.86 72.0696 40.47 72.5796 40.47ZM74.7964 41V33.9H75.4464V38.24L76.8264 36.05H77.5664L76.4564 37.74L77.5764 41H76.8964L76.0164 38.38L75.4464 39.24V41H74.7964ZM78.8765 41.1C78.5265 41.1 78.1765 40.94 77.9765 40.68V39.83C78.1665 40.2 78.5165 40.45 78.8565 40.45C79.2065 40.45 79.4465 40.14 79.4465 39.68C79.4465 39.37 79.3765 39.15 78.8965 38.79L78.6565 38.61C78.1765 38.25 77.9765 37.88 77.9765 37.32C77.9765 36.51 78.4765 35.95 79.1765 35.95C79.4765 35.95 79.7565 36.06 79.9365 36.24V37C79.7665 36.76 79.4765 36.59 79.2165 36.59C78.8665 36.59 78.6265 36.87 78.6265 37.29C78.6265 37.6 78.7065 37.79 79.1865 38.15L79.4265 38.33C79.9065 38.69 80.0965 39.08 80.0965 39.65C80.0965 40.5 79.5965 41.1 78.8765 41.1ZM82.243 35.01C82.243 34.29 82.583 33.81 83.153 33.81C83.393 33.81 83.603 33.9 83.703 33.98L83.793 34.62C83.703 34.5 83.523 34.43 83.343 34.43C83.043 34.43 82.903 34.65 82.903 35.04V36.05H83.743V36.66H82.903V41H82.243V36.66H81.673V36.05H82.243V35.01ZM85.4898 41.1C84.5698 41.1 84.0798 40.22 84.0798 38.52C84.0798 36.82 84.5698 35.95 85.4898 35.95C86.4198 35.95 86.9098 36.82 86.9098 38.52C86.9098 40.22 86.4198 41.1 85.4898 41.1ZM85.4898 40.47C85.9998 40.47 86.2498 39.86 86.2498 38.52C86.2498 37.19 85.9998 36.58 85.4898 36.58C84.9798 36.58 84.7298 37.19 84.7298 38.52C84.7298 39.86 84.9798 40.47 85.4898 40.47ZM87.7066 41V36.05H88.3066V36.91C88.4866 36.28 88.7266 35.98 89.0866 35.98C89.1966 35.98 89.2866 36.01 89.3466 36.05L89.4566 36.77C89.3766 36.71 89.2666 36.67 89.1466 36.67C88.7466 36.67 88.4566 37.1 88.3666 37.81V41H87.7066ZM92.2255 41.08C91.6355 41.08 91.3155 40.69 91.3155 39.99V36.66H90.7155V36.31L91.9655 35.08H91.9755V36.05H92.8255V36.66H91.9755V39.88C91.9755 40.31 92.1255 40.44 92.4055 40.44C92.5955 40.44 92.7855 40.38 92.9355 40.25L92.8055 40.9C92.6955 41.01 92.4755 41.08 92.2255 41.08ZM93.5464 41V33.9H94.1964V36.85C94.4264 36.28 94.7964 35.95 95.2464 35.95C95.7964 35.95 96.1464 36.38 96.1464 37.11V41H95.4864V37.28C95.4864 36.83 95.3364 36.6 95.0364 36.6C94.6764 36.6 94.3964 36.94 94.1964 37.59V41H93.5464ZM98.3311 41.1C97.4211 41.1 96.9411 40.22 96.9411 38.53C96.9411 36.82 97.4211 35.95 98.3011 35.95C99.1711 35.95 99.6411 36.8 99.6411 38.36V38.65H97.5811C97.5911 39.91 97.8411 40.49 98.3411 40.49C98.7311 40.49 98.9511 40.12 99.0211 39.38H99.6411C99.5411 40.5 99.0911 41.1 98.3311 41.1ZM97.5911 38.06H99.0011C98.9711 37.06 98.7311 36.55 98.3011 36.55C97.8811 36.55 97.6311 37.03 97.5911 38.06ZM100.451 41V36.05H101.111V41H100.451ZM100.791 34.97C100.531 34.97 100.351 34.77 100.351 34.51C100.351 34.25 100.531 34.05 100.791 34.05C101.031 34.05 101.211 34.25 101.211 34.51C101.211 34.77 101.031 34.97 100.791 34.97ZM102.072 41V36.05H102.672V36.91C102.852 36.28 103.092 35.98 103.452 35.98C103.562 35.98 103.652 36.01 103.712 36.05L103.822 36.77C103.742 36.71 103.632 36.67 103.512 36.67C103.112 36.67 102.822 37.1 102.732 37.81V41H102.072ZM105.451 41V33.9H106.101V36.85C106.331 36.28 106.701 35.95 107.151 35.95C107.701 35.95 108.051 36.38 108.051 37.11V41H107.391V37.28C107.391 36.83 107.241 36.6 106.941 36.6C106.581 36.6 106.301 36.94 106.101 37.59V41H105.451ZM110.255 41.1C109.335 41.1 108.845 40.22 108.845 38.52C108.845 36.82 109.335 35.95 110.255 35.95C111.185 35.95 111.675 36.82 111.675 38.52C111.675 40.22 111.185 41.1 110.255 41.1ZM110.255 40.47C110.765 40.47 111.015 39.86 111.015 38.52C111.015 37.19 110.765 36.58 110.255 36.58C109.745 36.58 109.495 37.19 109.495 38.52C109.495 39.86 109.745 40.47 110.255 40.47ZM113.362 41.1C112.812 41.1 112.462 40.67 112.462 39.94V36.05H113.122V39.77C113.122 40.22 113.272 40.45 113.572 40.45C113.932 40.45 114.212 40.11 114.412 39.46V36.05H115.062V41H114.412V40.17C114.192 40.76 113.822 41.1 113.362 41.1ZM116.777 41.1C116.427 41.1 116.077 40.94 115.877 40.68V39.83C116.067 40.2 116.417 40.45 116.757 40.45C117.107 40.45 117.347 40.14 117.347 39.68C117.347 39.37 117.277 39.15 116.797 38.79L116.557 38.61C116.077 38.25 115.877 37.88 115.877 37.32C115.877 36.51 116.377 35.95 117.077 35.95C117.377 35.95 117.657 36.06 117.837 36.24V37C117.667 36.76 117.377 36.59 117.117 36.59C116.767 36.59 116.527 36.87 116.527 37.29C116.527 37.6 116.607 37.79 117.087 38.15L117.327 38.33C117.807 38.69 117.997 39.08 117.997 39.65C117.997 40.5 117.497 41.1 116.777 41.1ZM119.972 41.1C119.062 41.1 118.582 40.22 118.582 38.53C118.582 36.82 119.062 35.95 119.942 35.95C120.812 35.95 121.282 36.8 121.282 38.36V38.65H119.222C119.232 39.91 119.482 40.49 119.982 40.49C120.372 40.49 120.592 40.12 120.662 39.38H121.282C121.182 40.5 120.732 41.1 119.972 41.1ZM119.232 38.06H120.642C120.612 37.06 120.372 36.55 119.942 36.55C119.522 36.55 119.272 37.03 119.232 38.06ZM122.091 41V33.9H122.741V36.85C122.971 36.28 123.341 35.95 123.791 35.95C124.341 35.95 124.691 36.38 124.691 37.11V41H124.031V37.28C124.031 36.83 123.881 36.6 123.581 36.6C123.221 36.6 122.941 36.94 122.741 37.59V41H122.091ZM126.896 41.1C125.976 41.1 125.486 40.22 125.486 38.52C125.486 36.82 125.976 35.95 126.896 35.95C127.826 35.95 128.316 36.82 128.316 38.52C128.316 40.22 127.826 41.1 126.896 41.1ZM126.896 40.47C127.406 40.47 127.656 39.86 127.656 38.52C127.656 37.19 127.406 36.58 126.896 36.58C126.386 36.58 126.136 37.19 126.136 38.52C126.136 39.86 126.386 40.47 126.896 40.47ZM129.113 41V33.9H129.763V41H129.113ZM131.744 41.09C130.994 41.09 130.574 40.19 130.574 38.52C130.574 36.86 130.994 35.96 131.744 35.96C132.214 35.96 132.544 36.33 132.774 37.06V33.9H133.424V41H132.774V39.99C132.544 40.72 132.214 41.09 131.744 41.09ZM131.874 40.47C132.294 40.47 132.654 39.72 132.814 38.52C132.654 37.33 132.294 36.58 131.874 36.58C131.474 36.58 131.234 37.26 131.234 38.52C131.234 39.79 131.474 40.47 131.874 40.47ZM136.438 41.07C135.838 41.07 135.378 40.45 135.378 39.6C135.378 38.59 135.998 37.91 136.908 37.91H137.258V37.52C137.258 36.9 137.058 36.59 136.628 36.59C136.218 36.59 135.838 36.86 135.568 37.32V36.52C135.828 36.17 136.268 35.95 136.728 35.95C137.488 35.95 137.898 36.51 137.898 37.5V40.57C137.898 40.73 137.908 40.87 137.918 41H137.278V40.34C137.108 40.79 136.818 41.07 136.438 41.07ZM136.568 40.47C136.878 40.47 137.118 40.14 137.258 39.62V38.49H136.928C136.358 38.49 136.018 38.9 136.018 39.57C136.018 40.12 136.238 40.47 136.568 40.47ZM138.839 41V36.05H139.489V36.85C139.719 36.28 140.089 35.95 140.539 35.95C141.089 35.95 141.439 36.38 141.439 37.11V41H140.779V37.28C140.779 36.83 140.629 36.6 140.329 36.6C139.969 36.6 139.689 36.94 139.489 37.59V41H138.839ZM143.414 41.09C142.664 41.09 142.244 40.19 142.244 38.52C142.244 36.86 142.664 35.96 143.414 35.96C143.884 35.96 144.214 36.33 144.444 37.06V33.9H145.094V41H144.444V39.99C144.214 40.72 143.884 41.09 143.414 41.09ZM143.544 40.47C143.964 40.47 144.324 39.72 144.484 38.52C144.324 37.33 143.964 36.58 143.544 36.58C143.144 36.58 142.904 37.26 142.904 38.52C142.904 39.79 143.144 40.47 143.544 40.47ZM1.71 55.1C0.8 55.1 0.32 54.22 0.32 52.53C0.32 50.82 0.8 49.95 1.68 49.95C2.55 49.95 3.02 50.8 3.02 52.36V52.65H0.96C0.97 53.91 1.22 54.49 1.72 54.49C2.11 54.49 2.33 54.12 2.4 53.38H3.02C2.92 54.5 2.47 55.1 1.71 55.1ZM0.97 52.06H2.38C2.35 51.06 2.11 50.55 1.68 50.55C1.26 50.55 1.01 51.03 0.97 52.06ZM3.37125 55L4.47125 52.39L3.45125 50.05H4.14125L4.88125 51.82L5.60125 50.05H6.28125L5.26125 52.39L6.39125 55H5.69125L4.87125 53.01L4.05125 55H3.37125ZM8.63461 55.09C8.16461 55.09 7.83461 54.72 7.60461 53.99V56.94H6.95461V50.05H7.60461V51.06C7.83461 50.33 8.16461 49.96 8.63461 49.96C9.38461 49.96 9.80461 50.86 9.80461 52.52C9.80461 54.19 9.38461 55.09 8.63461 55.09ZM8.50461 54.47C8.90461 54.47 9.14461 53.79 9.14461 52.52C9.14461 51.26 8.90461 50.58 8.50461 50.58C8.08461 50.58 7.72461 51.33 7.56461 52.52C7.72461 53.72 8.08461 54.47 8.50461 54.47ZM11.4867 55.07C10.8867 55.07 10.4267 54.45 10.4267 53.6C10.4267 52.59 11.0467 51.91 11.9567 51.91H12.3067V51.52C12.3067 50.9 12.1067 50.59 11.6767 50.59C11.2667 50.59 10.8867 50.86 10.6167 51.32V50.52C10.8767 50.17 11.3167 49.95 11.7767 49.95C12.5367 49.95 12.9467 50.51 12.9467 51.5V54.57C12.9467 54.73 12.9567 54.87 12.9667 55H12.3267V54.34C12.1567 54.79 11.8667 55.07 11.4867 55.07ZM11.6167 54.47C11.9267 54.47 12.1667 54.14 12.3067 53.62V52.49H11.9767C11.4067 52.49 11.0667 52.9 11.0667 53.57C11.0667 54.12 11.2867 54.47 11.6167 54.47ZM13.8882 55V50.05H14.5382V50.85C14.7682 50.28 15.1382 49.95 15.5882 49.95C16.1382 49.95 16.4882 50.38 16.4882 51.11V55H15.8282V51.28C15.8282 50.83 15.6782 50.6 15.3782 50.6C15.0182 50.6 14.7382 50.94 14.5382 51.59V55H13.8882ZM18.4629 55.09C17.7129 55.09 17.2929 54.19 17.2929 52.52C17.2929 50.86 17.7129 49.96 18.4629 49.96C18.9329 49.96 19.2629 50.33 19.4929 51.06V47.9H20.1429V55H19.4929V53.99C19.2629 54.72 18.9329 55.09 18.4629 55.09ZM18.5929 54.47C19.0129 54.47 19.3729 53.72 19.5329 52.52C19.3729 51.33 19.0129 50.58 18.5929 50.58C18.1929 50.58 17.9529 51.26 17.9529 52.52C17.9529 53.79 18.1929 54.47 18.5929 54.47ZM21.105 55V50.05H21.765V55H21.105ZM21.445 48.97C21.185 48.97 21.005 48.77 21.005 48.51C21.005 48.25 21.185 48.05 21.445 48.05C21.685 48.05 21.865 48.25 21.865 48.51C21.865 48.77 21.685 48.97 21.445 48.97ZM22.7261 55V50.05H23.3761V50.85C23.6061 50.28 23.9761 49.95 24.4261 49.95C24.9761 49.95 25.3261 50.38 25.3261 51.11V55H24.6661V51.28C24.6661 50.83 24.5161 50.6 24.2161 50.6C23.8561 50.6 23.5761 50.94 23.3761 51.59V55H22.7261ZM27.5908 57C26.8508 57 26.3608 56.55 26.2608 55.69H26.9108C26.9808 56.17 27.2308 56.4 27.5908 56.4C28.0808 56.4 28.3308 55.95 28.3308 55.02V53.99C28.1008 54.72 27.7708 55.09 27.3008 55.09C26.5508 55.09 26.1308 54.19 26.1308 52.52C26.1308 50.86 26.5508 49.96 27.3008 49.96C27.7708 49.96 28.1008 50.33 28.3308 51.06V50.05H28.9808V54.97C28.9808 56.31 28.5108 57 27.5908 57ZM27.4308 54.47C27.8508 54.47 28.2108 53.72 28.3708 52.52C28.2108 51.33 27.8508 50.58 27.4308 50.58C27.0308 50.58 26.7908 51.26 26.7908 52.52C26.7908 53.79 27.0308 54.47 27.4308 54.47ZM31.9945 55.07C31.3945 55.07 30.9345 54.45 30.9345 53.6C30.9345 52.59 31.5545 51.91 32.4645 51.91H32.8145V51.52C32.8145 50.9 32.6145 50.59 32.1845 50.59C31.7745 50.59 31.3945 50.86 31.1245 51.32V50.52C31.3845 50.17 31.8245 49.95 32.2845 49.95C33.0445 49.95 33.4545 50.51 33.4545 51.5V54.57C33.4545 54.73 33.4645 54.87 33.4745 55H32.8345V54.34C32.6645 54.79 32.3745 55.07 31.9945 55.07ZM32.1245 54.47C32.4345 54.47 32.6745 54.14 32.8145 53.62V52.49H32.4845C31.9145 52.49 31.5745 52.9 31.5745 53.57C31.5745 54.12 31.7945 54.47 32.1245 54.47ZM35.416 55.09C34.666 55.09 34.246 54.19 34.246 52.52C34.246 50.86 34.666 49.96 35.416 49.96C35.886 49.96 36.216 50.33 36.446 51.06V47.9H37.096V55H36.446V53.99C36.216 54.72 35.886 55.09 35.416 55.09ZM35.546 54.47C35.966 54.47 36.326 53.72 36.486 52.52C36.326 51.33 35.966 50.58 35.546 50.58C35.146 50.58 34.906 51.26 34.906 52.52C34.906 53.79 35.146 54.47 35.546 54.47ZM39.0781 55.09C38.3281 55.09 37.9081 54.19 37.9081 52.52C37.9081 50.86 38.3281 49.96 39.0781 49.96C39.5481 49.96 39.8781 50.33 40.1081 51.06V47.9H40.7581V55H40.1081V53.99C39.8781 54.72 39.5481 55.09 39.0781 55.09ZM39.2081 54.47C39.6281 54.47 39.9881 53.72 40.1481 52.52C39.9881 51.33 39.6281 50.58 39.2081 50.58C38.8081 50.58 38.5681 51.26 38.5681 52.52C38.5681 53.79 38.8081 54.47 39.2081 54.47ZM41.7202 55V50.05H42.3202V50.91C42.5002 50.28 42.7402 49.98 43.1002 49.98C43.2102 49.98 43.3002 50.01 43.3602 50.05L43.4702 50.77C43.3902 50.71 43.2802 50.67 43.1602 50.67C42.7602 50.67 42.4702 51.1 42.3802 51.81V55H41.7202ZM45.1377 55.1C44.2277 55.1 43.7477 54.22 43.7477 52.53C43.7477 50.82 44.2277 49.95 45.1077 49.95C45.9777 49.95 46.4477 50.8 46.4477 52.36V52.65H44.3877C44.3977 53.91 44.6477 54.49 45.1477 54.49C45.5377 54.49 45.7577 54.12 45.8277 53.38H46.4477C46.3477 54.5 45.8977 55.1 45.1377 55.1ZM44.3977 52.06H45.8077C45.7777 51.06 45.5377 50.55 45.1077 50.55C44.6877 50.55 44.4377 51.03 44.3977 52.06ZM48.0073 55.1C47.6573 55.1 47.3073 54.94 47.1073 54.68V53.83C47.2973 54.2 47.6473 54.45 47.9873 54.45C48.3373 54.45 48.5773 54.14 48.5773 53.68C48.5773 53.37 48.5073 53.15 48.0273 52.79L47.7873 52.61C47.3073 52.25 47.1073 51.88 47.1073 51.32C47.1073 50.51 47.6073 49.95 48.3073 49.95C48.6073 49.95 48.8873 50.06 49.0673 50.24V51C48.8973 50.76 48.6073 50.59 48.3473 50.59C47.9973 50.59 47.7573 50.87 47.7573 51.29C47.7573 51.6 47.8373 51.79 48.3173 52.15L48.5573 52.33C49.0373 52.69 49.2273 53.08 49.2273 53.65C49.2273 54.5 48.7273 55.1 48.0073 55.1ZM50.7222 55.1C50.3722 55.1 50.0222 54.94 49.8222 54.68V53.83C50.0122 54.2 50.3622 54.45 50.7022 54.45C51.0522 54.45 51.2922 54.14 51.2922 53.68C51.2922 53.37 51.2222 53.15 50.7422 52.79L50.5022 52.61C50.0222 52.25 49.8222 51.88 49.8222 51.32C49.8222 50.51 50.3222 49.95 51.0222 49.95C51.3222 49.95 51.6022 50.06 51.7822 50.24V51C51.6122 50.76 51.3222 50.59 51.0622 50.59C50.7122 50.59 50.4722 50.87 50.4722 51.29C50.4722 51.6 50.5522 51.79 51.0322 52.15L51.2722 52.33C51.7522 52.69 51.9422 53.08 51.9422 53.65C51.9422 54.5 51.4422 55.1 50.7222 55.1ZM53.557 55.07C52.957 55.07 52.497 54.45 52.497 53.6C52.497 52.59 53.117 51.91 54.027 51.91H54.377V51.52C54.377 50.9 54.177 50.59 53.747 50.59C53.337 50.59 52.957 50.86 52.687 51.32V50.52C52.947 50.17 53.387 49.95 53.847 49.95C54.607 49.95 55.017 50.51 55.017 51.5V54.57C55.017 54.73 55.027 54.87 55.037 55H54.397V54.34C54.227 54.79 53.937 55.07 53.557 55.07ZM53.687 54.47C53.997 54.47 54.237 54.14 54.377 53.62V52.49H54.047C53.477 52.49 53.137 52.9 53.137 53.57C53.137 54.12 53.357 54.47 53.687 54.47ZM57.6385 55.09C57.1685 55.09 56.8385 54.72 56.6085 53.99V55H55.9585V47.9H56.6085V51.06C56.8385 50.33 57.1685 49.96 57.6385 49.96C58.3885 49.96 58.8085 50.86 58.8085 52.52C58.8085 54.19 58.3885 55.09 57.6385 55.09ZM57.5085 54.47C57.9085 54.47 58.1485 53.79 58.1485 52.52C58.1485 51.26 57.9085 50.58 57.5085 50.58C57.0885 50.58 56.7285 51.33 56.5685 52.52C56.7285 53.72 57.0885 54.47 57.5085 54.47ZM59.6206 55V47.9H60.2706V55H59.6206ZM62.462 55.1C61.552 55.1 61.072 54.22 61.072 52.53C61.072 50.82 61.552 49.95 62.432 49.95C63.302 49.95 63.772 50.8 63.772 52.36V52.65H61.712C61.722 53.91 61.972 54.49 62.472 54.49C62.862 54.49 63.082 54.12 63.152 53.38H63.772C63.672 54.5 63.222 55.1 62.462 55.1ZM61.722 52.06H63.132C63.102 51.06 62.862 50.55 62.432 50.55C62.012 50.55 61.762 51.03 61.722 52.06ZM65.7632 55V50.05H66.3632V50.91C66.5432 50.28 66.7832 49.98 67.1432 49.98C67.2532 49.98 67.3432 50.01 67.4032 50.05L67.5132 50.77C67.4332 50.71 67.3232 50.67 67.2032 50.67C66.8032 50.67 66.5132 51.1 66.4232 51.81V55H65.7632ZM69.1807 55.1C68.2707 55.1 67.7907 54.22 67.7907 52.53C67.7907 50.82 68.2707 49.95 69.1507 49.95C70.0207 49.95 70.4907 50.8 70.4907 52.36V52.65H68.4307C68.4407 53.91 68.6907 54.49 69.1907 54.49C69.5807 54.49 69.8007 54.12 69.8707 53.38H70.4907C70.3907 54.5 69.9407 55.1 69.1807 55.1ZM68.4407 52.06H69.8507C69.8207 51.06 69.5807 50.55 69.1507 50.55C68.7307 50.55 68.4807 51.03 68.4407 52.06ZM72.0117 55L70.9117 50.05H71.5817L72.3917 54.05L73.2217 50.05H73.8617L72.7417 55H72.0117ZM75.6651 55.1C74.7551 55.1 74.2751 54.22 74.2751 52.53C74.2751 50.82 74.7551 49.95 75.6351 49.95C76.5051 49.95 76.9751 50.8 76.9751 52.36V52.65H74.9151C74.9251 53.91 75.1751 54.49 75.6751 54.49C76.0651 54.49 76.2851 54.12 76.3551 53.38H76.9751C76.8751 54.5 76.4251 55.1 75.6651 55.1ZM74.9251 52.06H76.3351C76.3051 51.06 76.0651 50.55 75.6351 50.55C75.2151 50.55 74.9651 51.03 74.9251 52.06ZM77.7847 55V50.05H78.4347V50.85C78.6647 50.28 79.0347 49.95 79.4847 49.95C80.0347 49.95 80.3847 50.38 80.3847 51.11V55H79.7247V51.28C79.7247 50.83 79.5747 50.6 79.2747 50.6C78.9147 50.6 78.6347 50.94 78.4347 51.59V55H77.7847ZM82.2294 55.1C81.6794 55.1 81.3294 54.67 81.3294 53.94V50.05H81.9894V53.77C81.9894 54.22 82.1394 54.45 82.4394 54.45C82.7994 54.45 83.0794 54.11 83.2794 53.46V50.05H83.9294V55H83.2794V54.17C83.0594 54.76 82.6894 55.1 82.2294 55.1ZM86.1241 55.1C85.2141 55.1 84.7341 54.22 84.7341 52.53C84.7341 50.82 85.2141 49.95 86.0941 49.95C86.9641 49.95 87.4341 50.8 87.4341 52.36V52.65H85.3741C85.3841 53.91 85.6341 54.49 86.1341 54.49C86.5241 54.49 86.7441 54.12 86.8141 53.38H87.4341C87.3341 54.5 86.8841 55.1 86.1241 55.1ZM85.3841 52.06H86.7941C86.7641 51.06 86.5241 50.55 86.0941 50.55C85.6741 50.55 85.4241 51.03 85.3841 52.06ZM91.1053 55.09C90.6353 55.09 90.3053 54.72 90.0753 53.99V56.94H89.4253V50.05H90.0753V51.06C90.3053 50.33 90.6353 49.96 91.1053 49.96C91.8553 49.96 92.2753 50.86 92.2753 52.52C92.2753 54.19 91.8553 55.09 91.1053 55.09ZM90.9753 54.47C91.3753 54.47 91.6153 53.79 91.6153 52.52C91.6153 51.26 91.3753 50.58 90.9753 50.58C90.5553 50.58 90.1953 51.33 90.0353 52.52C90.1953 53.72 90.5553 54.47 90.9753 54.47ZM94.3174 55.1C93.4074 55.1 92.9274 54.22 92.9274 52.53C92.9274 50.82 93.4074 49.95 94.2874 49.95C95.1574 49.95 95.6274 50.8 95.6274 52.36V52.65H93.5674C93.5774 53.91 93.8274 54.49 94.3274 54.49C94.7174 54.49 94.9374 54.12 95.0074 53.38H95.6274C95.5274 54.5 95.0774 55.1 94.3174 55.1ZM93.5774 52.06H94.9874C94.9574 51.06 94.7174 50.55 94.2874 50.55C93.8674 50.55 93.6174 51.03 93.5774 52.06ZM96.437 55V50.05H97.037V50.91C97.217 50.28 97.457 49.98 97.817 49.98C97.927 49.98 98.017 50.01 98.077 50.05L98.187 50.77C98.107 50.71 97.997 50.67 97.877 50.67C97.477 50.67 97.187 51.1 97.097 51.81V55H96.437ZM100.686 55.07C100.086 55.07 99.6259 54.45 99.6259 53.6C99.6259 52.59 100.246 51.91 101.156 51.91H101.506V51.52C101.506 50.9 101.306 50.59 100.876 50.59C100.466 50.59 100.086 50.86 99.8159 51.32V50.52C100.076 50.17 100.516 49.95 100.976 49.95C101.736 49.95 102.146 50.51 102.146 51.5V54.57C102.146 54.73 102.156 54.87 102.166 55H101.526V54.34C101.356 54.79 101.066 55.07 100.686 55.07ZM100.816 54.47C101.126 54.47 101.366 54.14 101.506 53.62V52.49H101.176C100.606 52.49 100.266 52.9 100.266 53.57C100.266 54.12 100.486 54.47 100.816 54.47ZM104.317 55.1C103.417 55.1 102.927 54.22 102.927 52.53C102.927 50.83 103.417 49.96 104.317 49.96C104.647 49.96 104.907 50.07 105.077 50.25V51.05C104.937 50.78 104.687 50.61 104.397 50.61C103.857 50.61 103.587 51.25 103.587 52.53C103.587 53.8 103.857 54.44 104.397 54.44C104.677 54.44 104.917 54.29 105.077 54.01V54.8C104.907 54.98 104.637 55.1 104.317 55.1ZM107.042 55.1C106.142 55.1 105.652 54.22 105.652 52.53C105.652 50.83 106.142 49.96 107.042 49.96C107.372 49.96 107.632 50.07 107.802 50.25V51.05C107.662 50.78 107.412 50.61 107.122 50.61C106.582 50.61 106.312 51.25 106.312 52.53C106.312 53.8 106.582 54.44 107.122 54.44C107.402 54.44 107.642 54.29 107.802 54.01V54.8C107.632 54.98 107.362 55.1 107.042 55.1ZM109.787 55.1C108.867 55.1 108.377 54.22 108.377 52.52C108.377 50.82 108.867 49.95 109.787 49.95C110.717 49.95 111.207 50.82 111.207 52.52C111.207 54.22 110.717 55.1 109.787 55.1ZM109.787 54.47C110.297 54.47 110.547 53.86 110.547 52.52C110.547 51.19 110.297 50.58 109.787 50.58C109.277 50.58 109.027 51.19 109.027 52.52C109.027 53.86 109.277 54.47 109.787 54.47ZM112.893 55.1C112.343 55.1 111.993 54.67 111.993 53.94V50.05H112.653V53.77C112.653 54.22 112.803 54.45 113.103 54.45C113.463 54.45 113.743 54.11 113.943 53.46V50.05H114.593V55H113.943V54.17C113.723 54.76 113.353 55.1 112.893 55.1ZM115.558 55V50.05H116.208V50.85C116.438 50.28 116.808 49.95 117.258 49.95C117.808 49.95 118.158 50.38 118.158 51.11V55H117.498V51.28C117.498 50.83 117.348 50.6 117.048 50.6C116.688 50.6 116.408 50.94 116.208 51.59V55H115.558ZM120.253 55.08C119.663 55.08 119.343 54.69 119.343 53.99V50.66H118.743V50.31L119.993 49.08H120.003V50.05H120.853V50.66H120.003V53.88C120.003 54.31 120.153 54.44 120.433 54.44C120.623 54.44 120.813 54.38 120.963 54.25L120.833 54.9C120.723 55.01 120.503 55.08 120.253 55.08Z" fill="white"/>
</svg>
