<svg width="155" height="56" viewBox="0 0 155 56" fill="none" xmlns="http://www.w3.org/2000/svg">
<path d="M3.11 11.17C1.93 11.17 0.93 10.69 0.52 10.27V8.51C1.06 9.4 2.19 9.87 3.04 9.87C3.8 9.87 4.19 9.55 4.19 9.06C4.19 8.65 4.05 8.41 2.94 8.08L2.38 7.92C1.24 7.59 0.52 7.03 0.52 5.87C0.52 4.74 1.47 3.73 3.18 3.73C4.12 3.73 4.93 4.05 5.33 4.38V5.98C5 5.52 4.17 5.03 3.25 5.03C2.38 5.03 2 5.42 2 5.84C2 6.22 2.18 6.41 3.29 6.74L3.85 6.9C4.99 7.23 5.68 7.83 5.68 8.97C5.68 10.21 4.73 11.17 3.11 11.17ZM8.41469 11.17C6.84469 11.17 5.79469 10.03 5.79469 8.52C5.79469 6.98 6.85469 5.84 8.34469 5.84C9.89469 5.84 10.8947 7.02 10.8947 8.51L10.8847 8.87H7.13469C7.23469 9.63 7.73469 10.07 8.45469 10.07C9.00469 10.07 9.37469 9.79 9.49469 9.36H10.8347C10.5447 10.49 9.63469 11.17 8.41469 11.17ZM7.15469 7.94H9.49469C9.44469 7.36 8.96469 6.95 8.34469 6.95C7.74469 6.95 7.27469 7.34 7.15469 7.94ZM14.4257 11.14C13.4957 11.14 12.9757 10.59 12.6657 10.01V12.94H11.2957V6.02H12.6657V7.02C12.9757 6.43 13.5057 5.87 14.4157 5.87C15.6657 5.87 16.5457 6.98 16.5457 8.51C16.5457 10.04 15.6757 11.14 14.4257 11.14ZM14.0557 9.95C14.7157 9.95 15.1657 9.39 15.1657 8.51C15.1657 7.63 14.7157 7.05 14.0557 7.05C13.3657 7.05 12.8557 7.71 12.6357 8.5C12.8557 9.29 13.3657 9.95 14.0557 9.95ZM17.5855 11.1C17.0955 11.1 16.6955 10.74 16.6955 10.26C16.6955 9.8 17.0955 9.44 17.5855 9.44C18.0655 9.44 18.4655 9.8 18.4655 10.26C18.4655 10.74 18.0655 11.1 17.5855 11.1ZM21.8184 11.17C20.7984 11.17 19.9284 10.72 19.6084 10.34V8.77C19.9784 9.41 20.8584 9.86 21.6684 9.86C22.4584 9.86 22.9384 9.47 22.9384 8.82C22.9384 8.17 22.4984 7.8 21.3084 7.8H20.9384V6.92L22.5984 5.14H19.7284V3.9H24.1784V5.2L22.5884 6.88C23.8084 7.12 24.3984 7.9 24.3984 8.93C24.3984 10.18 23.2784 11.17 21.8184 11.17ZM27.6116 11.17C25.6816 11.17 24.7116 9.56 24.7116 7.45C24.7116 5.34 25.6816 3.73 27.6116 3.73C29.5316 3.73 30.5116 5.34 30.5116 7.45C30.5116 9.56 29.5316 11.17 27.6116 11.17ZM27.6116 9.85C28.5416 9.85 29.0416 8.99 29.0416 7.44C29.0416 5.91 28.5416 5.05 27.6116 5.05C26.6716 5.05 26.1816 5.91 26.1816 7.44C26.1816 8.99 26.6716 9.85 27.6116 9.85ZM34.492 4.56C34.042 4.6 33.712 4.89 33.712 5.39V5.5H34.492V6.96H32.912V5.66C32.912 4.58 33.492 3.86 34.492 3.84V4.56ZM34.8795 11C34.8495 9.7 35.4295 8.81 36.9795 7.74C37.9895 7.03 38.3595 6.55 38.3595 5.98C38.3595 5.44 38.0795 5.01 37.3595 5.01C36.6395 5.01 36.2395 5.5 36.2395 6.45H34.8695C34.8695 4.74 35.7895 3.73 37.3795 3.73C39.0195 3.73 39.7995 4.8 39.7995 5.9C39.7995 6.88 39.2795 7.64 37.8995 8.63C37.2695 9.08 36.9295 9.4 36.7495 9.73H39.7795V11H34.8795ZM42.9691 11.17C42.1791 11.17 41.5091 10.93 41.0291 10.43C40.4691 9.87 40.1591 8.98 40.1591 7.75C40.1591 5.25 41.3591 3.73 43.2591 3.73C43.9591 3.73 44.5991 3.96 45.0191 4.27V5.78C44.7391 5.42 44.0991 5.03 43.3691 5.03C42.1991 5.03 41.5891 6.04 41.5691 7.27C41.7991 6.82 42.3791 6.26 43.2891 6.26C44.7491 6.26 45.4891 7.33 45.4891 8.6C45.4891 9.91 44.6191 11.17 42.9691 11.17ZM42.8791 9.94C43.6691 9.94 44.0991 9.38 44.0991 8.65C44.0991 7.95 43.6691 7.41 42.8791 7.41C42.0791 7.41 41.6591 7.97 41.6591 8.65C41.6591 9.35 42.0791 9.94 42.8791 9.94Z" fill="#7C7C7C"/>
<path d="M0.59 25V17.9H2.93V18.54H1.27V21.03H2.76V21.67H1.27V24.36H2.98V25H0.59ZM4.52102 25.1C4.17102 25.1 3.82102 24.94 3.62102 24.68V23.83C3.81102 24.2 4.16102 24.45 4.50102 24.45C4.85102 24.45 5.09102 24.14 5.09102 23.68C5.09102 23.37 5.02102 23.15 4.54102 22.79L4.30102 22.61C3.82102 22.25 3.62102 21.88 3.62102 21.32C3.62102 20.51 4.12102 19.95 4.82102 19.95C5.12102 19.95 5.40102 20.06 5.58102 20.24V21C5.41102 20.76 5.12102 20.59 4.86102 20.59C4.51102 20.59 4.27102 20.87 4.27102 21.29C4.27102 21.6 4.35102 21.79 4.83102 22.15L5.07102 22.33C5.55102 22.69 5.74102 23.08 5.74102 23.65C5.74102 24.5 5.24102 25.1 4.52102 25.1ZM7.62586 25.08C7.03586 25.08 6.71586 24.69 6.71586 23.99V20.66H6.11586V20.31L7.36586 19.08H7.37586V20.05H8.22586V20.66H7.37586V23.88C7.37586 24.31 7.52586 24.44 7.80586 24.44C7.99586 24.44 8.18586 24.38 8.33586 24.25L8.20586 24.9C8.09586 25.01 7.87586 25.08 7.62586 25.08ZM9.8168 25.07C9.2168 25.07 8.7568 24.45 8.7568 23.6C8.7568 22.59 9.3768 21.91 10.2868 21.91H10.6368V21.52C10.6368 20.9 10.4368 20.59 10.0068 20.59C9.5968 20.59 9.2168 20.86 8.9468 21.32V20.52C9.2068 20.17 9.6468 19.95 10.1068 19.95C10.8668 19.95 11.2768 20.51 11.2768 21.5V24.57C11.2768 24.73 11.2868 24.87 11.2968 25H10.6568V24.34C10.4868 24.79 10.1968 25.07 9.8168 25.07ZM9.9468 24.47C10.2568 24.47 10.4968 24.14 10.6368 23.62V22.49H10.3068C9.7368 22.49 9.3968 22.9 9.3968 23.57C9.3968 24.12 9.6168 24.47 9.9468 24.47ZM13.8983 25.09C13.4283 25.09 13.0983 24.72 12.8683 23.99V25H12.2183V17.9H12.8683V21.06C13.0983 20.33 13.4283 19.96 13.8983 19.96C14.6483 19.96 15.0683 20.86 15.0683 22.52C15.0683 24.19 14.6483 25.09 13.8983 25.09ZM13.7683 24.47C14.1683 24.47 14.4083 23.79 14.4083 22.52C14.4083 21.26 14.1683 20.58 13.7683 20.58C13.3483 20.58 12.9883 21.33 12.8283 22.52C12.9883 23.72 13.3483 24.47 13.7683 24.47ZM15.8804 25V17.9H16.5304V25H15.8804ZM17.4917 25V20.05H18.1517V25H17.4917ZM17.8317 18.97C17.5717 18.97 17.3917 18.77 17.3917 18.51C17.3917 18.25 17.5717 18.05 17.8317 18.05C18.0717 18.05 18.2517 18.25 18.2517 18.51C18.2517 18.77 18.0717 18.97 17.8317 18.97ZM19.8628 25.1C19.5128 25.1 19.1628 24.94 18.9628 24.68V23.83C19.1528 24.2 19.5028 24.45 19.8428 24.45C20.1928 24.45 20.4328 24.14 20.4328 23.68C20.4328 23.37 20.3628 23.15 19.8828 22.79L19.6428 22.61C19.1628 22.25 18.9628 21.88 18.9628 21.32C18.9628 20.51 19.4628 19.95 20.1628 19.95C20.4628 19.95 20.7428 20.06 20.9228 20.24V21C20.7528 20.76 20.4628 20.59 20.2028 20.59C19.8528 20.59 19.6128 20.87 19.6128 21.29C19.6128 21.6 19.6928 21.79 20.1728 22.15L20.4128 22.33C20.8928 22.69 21.0828 23.08 21.0828 23.65C21.0828 24.5 20.5828 25.1 19.8628 25.1ZM21.8277 25V17.9H22.4777V20.85C22.7077 20.28 23.0777 19.95 23.5277 19.95C24.0777 19.95 24.4277 20.38 24.4277 21.11V25H23.7677V21.28C23.7677 20.83 23.6177 20.6 23.3177 20.6C22.9577 20.6 22.6777 20.94 22.4777 21.59V25H21.8277ZM26.6123 25.1C25.7023 25.1 25.2223 24.22 25.2223 22.53C25.2223 20.82 25.7023 19.95 26.5823 19.95C27.4523 19.95 27.9223 20.8 27.9223 22.36V22.65H25.8623C25.8723 23.91 26.1223 24.49 26.6223 24.49C27.0123 24.49 27.2323 24.12 27.3023 23.38H27.9223C27.8223 24.5 27.3723 25.1 26.6123 25.1ZM25.8723 22.06H27.2823C27.2523 21.06 27.0123 20.55 26.5823 20.55C26.1623 20.55 25.9123 21.03 25.8723 22.06ZM29.752 25.09C29.002 25.09 28.582 24.19 28.582 22.52C28.582 20.86 29.002 19.96 29.752 19.96C30.222 19.96 30.552 20.33 30.782 21.06V17.9H31.432V25H30.782V23.99C30.552 24.72 30.222 25.09 29.752 25.09ZM29.882 24.47C30.302 24.47 30.662 23.72 30.822 22.52C30.662 21.33 30.302 20.58 29.882 20.58C29.482 20.58 29.242 21.26 29.242 22.52C29.242 23.79 29.482 24.47 29.882 24.47ZM33.6857 25V17.9H34.8657C36.0457 17.9 36.6757 18.61 36.6757 19.9C36.6757 21.19 36.0357 21.89 34.8557 21.89H34.3657V25H33.6857ZM34.8357 21.25C35.5757 21.25 35.9857 20.78 35.9857 19.9C35.9857 19 35.5857 18.54 34.8457 18.54H34.3657V21.25H34.8357ZM37.2866 25V20.05H37.8866V20.91C38.0666 20.28 38.3066 19.98 38.6666 19.98C38.7766 19.98 38.8666 20.01 38.9266 20.05L39.0366 20.77C38.9566 20.71 38.8466 20.67 38.7266 20.67C38.3266 20.67 38.0366 21.1 37.9466 21.81V25H37.2866ZM40.7241 25.1C39.8041 25.1 39.3141 24.22 39.3141 22.52C39.3141 20.82 39.8041 19.95 40.7241 19.95C41.6541 19.95 42.1441 20.82 42.1441 22.52C42.1441 24.22 41.6541 25.1 40.7241 25.1ZM40.7241 24.47C41.2341 24.47 41.4841 23.86 41.4841 22.52C41.4841 21.19 41.2341 20.58 40.7241 20.58C40.2141 20.58 39.9641 21.19 39.9641 22.52C39.9641 23.86 40.2141 24.47 40.7241 24.47ZM44.9926 25.07C44.3926 25.07 43.9326 24.45 43.9326 23.6C43.9326 22.59 44.5526 21.91 45.4626 21.91H45.8126V21.52C45.8126 20.9 45.6126 20.59 45.1826 20.59C44.7726 20.59 44.3926 20.86 44.1226 21.32V20.52C44.3826 20.17 44.8226 19.95 45.2826 19.95C46.0426 19.95 46.4526 20.51 46.4526 21.5V24.57C46.4526 24.73 46.4626 24.87 46.4726 25H45.8326V24.34C45.6626 24.79 45.3726 25.07 44.9926 25.07ZM45.1226 24.47C45.4326 24.47 45.6726 24.14 45.8126 23.62V22.49H45.4826C44.9126 22.49 44.5726 22.9 44.5726 23.57C44.5726 24.12 44.7926 24.47 45.1226 24.47ZM48.1441 25.1C47.7941 25.1 47.4441 24.94 47.2441 24.68V23.83C47.4341 24.2 47.7841 24.45 48.1241 24.45C48.4741 24.45 48.7141 24.14 48.7141 23.68C48.7141 23.37 48.6441 23.15 48.1641 22.79L47.9241 22.61C47.4441 22.25 47.2441 21.88 47.2441 21.32C47.2441 20.51 47.7441 19.95 48.4441 19.95C48.7441 19.95 49.0241 20.06 49.2041 20.24V21C49.0341 20.76 48.7441 20.59 48.4841 20.59C48.1341 20.59 47.8941 20.87 47.8941 21.29C47.8941 21.6 47.9741 21.79 48.4541 22.15L48.6941 22.33C49.1741 22.69 49.3641 23.08 49.3641 23.65C49.3641 24.5 48.8641 25.1 48.1441 25.1ZM52.1605 25.07C51.5605 25.07 51.1005 24.45 51.1005 23.6C51.1005 22.59 51.7205 21.91 52.6305 21.91H52.9805V21.52C52.9805 20.9 52.7805 20.59 52.3505 20.59C51.9405 20.59 51.5605 20.86 51.2905 21.32V20.52C51.5505 20.17 51.9905 19.95 52.4505 19.95C53.2105 19.95 53.6205 20.51 53.6205 21.5V24.57C53.6205 24.73 53.6305 24.87 53.6405 25H53.0005V24.34C52.8305 24.79 52.5405 25.07 52.1605 25.07ZM52.2905 24.47C52.6005 24.47 52.8405 24.14 52.9805 23.62V22.49H52.6505C52.0805 22.49 51.7405 22.9 51.7405 23.57C51.7405 24.12 51.9605 24.47 52.2905 24.47ZM54.562 25V20.05H55.212V20.85C55.442 20.28 55.812 19.95 56.262 19.95C56.812 19.95 57.162 20.38 57.162 21.11V25H56.502V21.28C56.502 20.83 56.352 20.6 56.052 20.6C55.692 20.6 55.412 20.94 55.212 21.59V25H54.562ZM59.2984 25V20.05H59.9584V25H59.2984ZM59.6384 18.97C59.3784 18.97 59.1984 18.77 59.1984 18.51C59.1984 18.25 59.3784 18.05 59.6384 18.05C59.8784 18.05 60.0584 18.25 60.0584 18.51C60.0584 18.77 59.8784 18.97 59.6384 18.97ZM60.9195 25V20.05H61.5695V20.85C61.7995 20.28 62.1695 19.95 62.6195 19.95C63.1695 19.95 63.5195 20.38 63.5195 21.11V25H62.8595V21.28C62.8595 20.83 62.7095 20.6 62.4095 20.6C62.0495 20.6 61.7695 20.94 61.5695 21.59V25H60.9195ZM65.4941 25.09C64.7441 25.09 64.3241 24.19 64.3241 22.52C64.3241 20.86 64.7441 19.96 65.4941 19.96C65.9641 19.96 66.2941 20.33 66.5241 21.06V17.9H67.1741V25H66.5241V23.99C66.2941 24.72 65.9641 25.09 65.4941 25.09ZM65.6241 24.47C66.0441 24.47 66.4041 23.72 66.5641 22.52C66.4041 21.33 66.0441 20.58 65.6241 20.58C65.2241 20.58 64.9841 21.26 64.9841 22.52C64.9841 23.79 65.2241 24.47 65.6241 24.47ZM69.3663 25.1C68.4563 25.1 67.9763 24.22 67.9763 22.53C67.9763 20.82 68.4563 19.95 69.3363 19.95C70.2063 19.95 70.6763 20.8 70.6763 22.36V22.65H68.6163C68.6263 23.91 68.8763 24.49 69.3763 24.49C69.7663 24.49 69.9863 24.12 70.0563 23.38H70.6763C70.5763 24.5 70.1263 25.1 69.3663 25.1ZM68.6263 22.06H70.0363C70.0063 21.06 69.7663 20.55 69.3363 20.55C68.9163 20.55 68.6663 21.03 68.6263 22.06ZM73.1659 25.09C72.6959 25.09 72.3659 24.72 72.1359 23.99V26.94H71.4859V20.05H72.1359V21.06C72.3659 20.33 72.6959 19.96 73.1659 19.96C73.9159 19.96 74.3359 20.86 74.3359 22.52C74.3359 24.19 73.9159 25.09 73.1659 25.09ZM73.0359 24.47C73.4359 24.47 73.6759 23.79 73.6759 22.52C73.6759 21.26 73.4359 20.58 73.0359 20.58C72.6159 20.58 72.2559 21.33 72.0959 22.52C72.2559 23.72 72.6159 24.47 73.0359 24.47ZM76.378 25.1C75.468 25.1 74.988 24.22 74.988 22.53C74.988 20.82 75.468 19.95 76.348 19.95C77.218 19.95 77.688 20.8 77.688 22.36V22.65H75.628C75.638 23.91 75.888 24.49 76.388 24.49C76.778 24.49 76.998 24.12 77.068 23.38H77.688C77.588 24.5 77.138 25.1 76.378 25.1ZM75.638 22.06H77.048C77.018 21.06 76.778 20.55 76.348 20.55C75.928 20.55 75.678 21.03 75.638 22.06ZM78.4976 25V20.05H79.1476V20.85C79.3776 20.28 79.7476 19.95 80.1976 19.95C80.7476 19.95 81.0976 20.38 81.0976 21.11V25H80.4376V21.28C80.4376 20.83 80.2876 20.6 79.9876 20.6C79.6276 20.6 79.3476 20.94 79.1476 21.59V25H78.4976ZM83.0723 25.09C82.3223 25.09 81.9023 24.19 81.9023 22.52C81.9023 20.86 82.3223 19.96 83.0723 19.96C83.5423 19.96 83.8723 20.33 84.1023 21.06V17.9H84.7523V25H84.1023V23.99C83.8723 24.72 83.5423 25.09 83.0723 25.09ZM83.2023 24.47C83.6223 24.47 83.9823 23.72 84.1423 22.52C83.9823 21.33 83.6223 20.58 83.2023 20.58C82.8023 20.58 82.5623 21.26 82.5623 22.52C82.5623 23.79 82.8023 24.47 83.2023 24.47ZM86.9444 25.1C86.0344 25.1 85.5544 24.22 85.5544 22.53C85.5544 20.82 86.0344 19.95 86.9144 19.95C87.7844 19.95 88.2544 20.8 88.2544 22.36V22.65H86.1944C86.2044 23.91 86.4544 24.49 86.9544 24.49C87.3444 24.49 87.5644 24.12 87.6344 23.38H88.2544C88.1544 24.5 87.7044 25.1 86.9444 25.1ZM86.2044 22.06H87.6144C87.5844 21.06 87.3444 20.55 86.9144 20.55C86.4944 20.55 86.2444 21.03 86.2044 22.06ZM89.064 25V20.05H89.714V20.85C89.944 20.28 90.314 19.95 90.764 19.95C91.314 19.95 91.664 20.38 91.664 21.11V25H91.004V21.28C91.004 20.83 90.854 20.6 90.554 20.6C90.194 20.6 89.914 20.94 89.714 21.59V25H89.064ZM93.7587 25.08C93.1687 25.08 92.8487 24.69 92.8487 23.99V20.66H92.2487V20.31L93.4987 19.08H93.5087V20.05H94.3587V20.66H93.5087V23.88C93.5087 24.31 93.6587 24.44 93.9387 24.44C94.1287 24.44 94.3187 24.38 94.4687 24.25L94.3387 24.9C94.2287 25.01 94.0087 25.08 93.7587 25.08ZM96.2613 25V20.05H96.8613V20.91C97.0413 20.28 97.2813 19.98 97.6413 19.98C97.7513 19.98 97.8413 20.01 97.9013 20.05L98.0113 20.77C97.9313 20.71 97.8213 20.67 97.7013 20.67C97.3013 20.67 97.0113 21.1 96.9213 21.81V25H96.2613ZM99.6788 25.1C98.7688 25.1 98.2888 24.22 98.2888 22.53C98.2888 20.82 98.7688 19.95 99.6488 19.95C100.519 19.95 100.989 20.8 100.989 22.36V22.65H98.9288C98.9388 23.91 99.1888 24.49 99.6888 24.49C100.079 24.49 100.299 24.12 100.369 23.38H100.989C100.889 24.5 100.439 25.1 99.6788 25.1ZM98.9388 22.06H100.349C100.319 21.06 100.079 20.55 99.6488 20.55C99.2288 20.55 98.9788 21.03 98.9388 22.06ZM102.51 25L101.41 20.05H102.08L102.89 24.05L103.72 20.05H104.36L103.24 25H102.51ZM106.163 25.1C105.253 25.1 104.773 24.22 104.773 22.53C104.773 20.82 105.253 19.95 106.133 19.95C107.003 19.95 107.473 20.8 107.473 22.36V22.65H105.413C105.423 23.91 105.673 24.49 106.173 24.49C106.563 24.49 106.783 24.12 106.853 23.38H107.473C107.373 24.5 106.923 25.1 106.163 25.1ZM105.423 22.06H106.833C106.803 21.06 106.563 20.55 106.133 20.55C105.713 20.55 105.463 21.03 105.423 22.06ZM108.283 25V20.05H108.933V20.85C109.163 20.28 109.533 19.95 109.983 19.95C110.533 19.95 110.883 20.38 110.883 21.11V25H110.223V21.28C110.223 20.83 110.073 20.6 109.773 20.6C109.413 20.6 109.133 20.94 108.933 21.59V25H108.283ZM112.727 25.1C112.177 25.1 111.827 24.67 111.827 23.94V20.05H112.487V23.77C112.487 24.22 112.637 24.45 112.937 24.45C113.297 24.45 113.577 24.11 113.777 23.46V20.05H114.427V25H113.777V24.17C113.557 24.76 113.187 25.1 112.727 25.1ZM116.622 25.1C115.712 25.1 115.232 24.22 115.232 22.53C115.232 20.82 115.712 19.95 116.592 19.95C117.462 19.95 117.932 20.8 117.932 22.36V22.65H115.872C115.882 23.91 116.132 24.49 116.632 24.49C117.022 24.49 117.242 24.12 117.312 23.38H117.932C117.832 24.5 117.382 25.1 116.622 25.1ZM115.882 22.06H117.292C117.262 21.06 117.022 20.55 116.592 20.55C116.172 20.55 115.922 21.03 115.882 22.06ZM119.923 25V17.9H120.573V25H119.923ZM121.535 25V20.05H122.195V25H121.535ZM121.875 18.97C121.615 18.97 121.435 18.77 121.435 18.51C121.435 18.25 121.615 18.05 121.875 18.05C122.115 18.05 122.295 18.25 122.295 18.51C122.295 18.77 122.115 18.97 121.875 18.97ZM123.156 25V20.05H123.806V20.85C124.036 20.28 124.406 19.95 124.856 19.95C125.406 19.95 125.756 20.38 125.756 21.11V25H125.096V21.28C125.096 20.83 124.946 20.6 124.646 20.6C124.286 20.6 124.006 20.94 123.806 21.59V25H123.156ZM127.94 25.1C127.03 25.1 126.55 24.22 126.55 22.53C126.55 20.82 127.03 19.95 127.91 19.95C128.78 19.95 129.25 20.8 129.25 22.36V22.65H127.19C127.2 23.91 127.45 24.49 127.95 24.49C128.34 24.49 128.56 24.12 128.63 23.38H129.25C129.15 24.5 128.7 25.1 127.94 25.1ZM127.2 22.06H128.61C128.58 21.06 128.34 20.55 127.91 20.55C127.49 20.55 127.24 21.03 127.2 22.06ZM1.35 39.07C0.75 39.07 0.29 38.45 0.29 37.6C0.29 36.59 0.91 35.91 1.82 35.91H2.17V35.52C2.17 34.9 1.97 34.59 1.54 34.59C1.13 34.59 0.75 34.86 0.48 35.32V34.52C0.74 34.17 1.18 33.95 1.64 33.95C2.4 33.95 2.81 34.51 2.81 35.5V38.57C2.81 38.73 2.82 38.87 2.83 39H2.19V38.34C2.02 38.79 1.73 39.07 1.35 39.07ZM1.48 38.47C1.79 38.47 2.03 38.14 2.17 37.62V36.49H1.84C1.27 36.49 0.93 36.9 0.93 37.57C0.93 38.12 1.15 38.47 1.48 38.47ZM3.75148 39V31.9H4.40148V39H3.75148ZM6.61281 39.1C5.69281 39.1 5.20281 38.22 5.20281 36.52C5.20281 34.82 5.69281 33.95 6.61281 33.95C7.54281 33.95 8.03281 34.82 8.03281 36.52C8.03281 38.22 7.54281 39.1 6.61281 39.1ZM6.61281 38.47C7.12281 38.47 7.37281 37.86 7.37281 36.52C7.37281 35.19 7.12281 34.58 6.61281 34.58C6.10281 34.58 5.85281 35.19 5.85281 36.52C5.85281 37.86 6.10281 38.47 6.61281 38.47ZM8.82961 39V34.05H9.47961V34.85C9.70961 34.28 10.0796 33.95 10.5296 33.95C11.0796 33.95 11.4296 34.38 11.4296 35.11V39H10.7696V35.28C10.7696 34.83 10.6196 34.6 10.3196 34.6C9.95961 34.6 9.67961 34.94 9.47961 35.59V39H8.82961ZM13.6943 41C12.9543 41 12.4643 40.55 12.3643 39.69H13.0143C13.0843 40.17 13.3343 40.4 13.6943 40.4C14.1843 40.4 14.4343 39.95 14.4343 39.02V37.99C14.2043 38.72 13.8743 39.09 13.4043 39.09C12.6543 39.09 12.2343 38.19 12.2343 36.52C12.2343 34.86 12.6543 33.96 13.4043 33.96C13.8743 33.96 14.2043 34.33 14.4343 35.06V34.05H15.0843V38.97C15.0843 40.31 14.6143 41 13.6943 41ZM13.5343 38.47C13.9543 38.47 14.3143 37.72 14.4743 36.52C14.3143 35.33 13.9543 34.58 13.5343 34.58C13.1343 34.58 12.8943 35.26 12.8943 36.52C12.8943 37.79 13.1343 38.47 13.5343 38.47ZM16.7964 39.1C16.4464 39.1 16.0964 38.94 15.8964 38.68V37.83C16.0864 38.2 16.4364 38.45 16.7764 38.45C17.1264 38.45 17.3664 38.14 17.3664 37.68C17.3664 37.37 17.2964 37.15 16.8164 36.79L16.5764 36.61C16.0964 36.25 15.8964 35.88 15.8964 35.32C15.8964 34.51 16.3964 33.95 17.0964 33.95C17.3964 33.95 17.6764 34.06 17.8564 34.24V35C17.6864 34.76 17.3964 34.59 17.1364 34.59C16.7864 34.59 16.5464 34.87 16.5464 35.29C16.5464 35.6 16.6264 35.79 17.1064 36.15L17.3464 36.33C17.8264 36.69 18.0164 37.08 18.0164 37.65C18.0164 38.5 17.5164 39.1 16.7964 39.1ZM18.7613 39V34.05H19.4213V39H18.7613ZM19.1013 32.97C18.8413 32.97 18.6613 32.77 18.6613 32.51C18.6613 32.25 18.8413 32.05 19.1013 32.05C19.3413 32.05 19.5213 32.25 19.5213 32.51C19.5213 32.77 19.3413 32.97 19.1013 32.97ZM21.4023 39.09C20.6523 39.09 20.2323 38.19 20.2323 36.52C20.2323 34.86 20.6523 33.96 21.4023 33.96C21.8723 33.96 22.2023 34.33 22.4323 35.06V31.9H23.0823V39H22.4323V37.99C22.2023 38.72 21.8723 39.09 21.4023 39.09ZM21.5323 38.47C21.9523 38.47 22.3123 37.72 22.4723 36.52C22.3123 35.33 21.9523 34.58 21.5323 34.58C21.1323 34.58 20.8923 35.26 20.8923 36.52C20.8923 37.79 21.1323 38.47 21.5323 38.47ZM25.2745 39.1C24.3645 39.1 23.8845 38.22 23.8845 36.53C23.8845 34.82 24.3645 33.95 25.2445 33.95C26.1145 33.95 26.5845 34.8 26.5845 36.36V36.65H24.5245C24.5345 37.91 24.7845 38.49 25.2845 38.49C25.6745 38.49 25.8945 38.12 25.9645 37.38H26.5845C26.4845 38.5 26.0345 39.1 25.2745 39.1ZM24.5345 36.06H25.9445C25.9145 35.06 25.6745 34.55 25.2445 34.55C24.8245 34.55 24.5745 35.03 24.5345 36.06ZM28.2457 39L29.7357 31.9H30.6157L32.1057 39H31.4157L31.0257 37.07H29.2957L28.9057 39H28.2457ZM29.4257 36.43H30.9057L30.1657 32.74L29.4257 36.43ZM33.5673 39.1C33.0173 39.1 32.6673 38.67 32.6673 37.94V34.05H33.3273V37.77C33.3273 38.22 33.4773 38.45 33.7773 38.45C34.1373 38.45 34.4173 38.11 34.6173 37.46V34.05H35.2673V39H34.6173V38.17C34.3973 38.76 34.0273 39.1 33.5673 39.1ZM37.252 39.09C36.502 39.09 36.082 38.19 36.082 36.52C36.082 34.86 36.502 33.96 37.252 33.96C37.722 33.96 38.052 34.33 38.282 35.06V31.9H38.932V39H38.282V37.99C38.052 38.72 37.722 39.09 37.252 39.09ZM37.382 38.47C37.802 38.47 38.162 37.72 38.322 36.52C38.162 35.33 37.802 34.58 37.382 34.58C36.982 34.58 36.742 35.26 36.742 36.52C36.742 37.79 36.982 38.47 37.382 38.47ZM39.8941 39V34.05H40.5541V39H39.8941ZM40.2341 32.97C39.9741 32.97 39.7941 32.77 39.7941 32.51C39.7941 32.25 39.9741 32.05 40.2341 32.05C40.4741 32.05 40.6541 32.25 40.6541 32.51C40.6541 32.77 40.4741 32.97 40.2341 32.97ZM42.7652 39.1C41.8452 39.1 41.3552 38.22 41.3552 36.52C41.3552 34.82 41.8452 33.95 42.7652 33.95C43.6952 33.95 44.1852 34.82 44.1852 36.52C44.1852 38.22 43.6952 39.1 42.7652 39.1ZM42.7652 38.47C43.2752 38.47 43.5252 37.86 43.5252 36.52C43.5252 35.19 43.2752 34.58 42.7652 34.58C42.2552 34.58 42.0052 35.19 42.0052 36.52C42.0052 37.86 42.2552 38.47 42.7652 38.47ZM46.662 39.09C46.192 39.09 45.862 38.72 45.632 37.99V39H44.982V31.9H45.632V35.06C45.862 34.33 46.192 33.96 46.662 33.96C47.412 33.96 47.832 34.86 47.832 36.52C47.832 38.19 47.412 39.09 46.662 39.09ZM46.532 38.47C46.932 38.47 47.172 37.79 47.172 36.52C47.172 35.26 46.932 34.58 46.532 34.58C46.112 34.58 45.752 35.33 45.592 36.52C45.752 37.72 46.112 38.47 46.532 38.47ZM49.8941 39.1C48.9741 39.1 48.4841 38.22 48.4841 36.52C48.4841 34.82 48.9741 33.95 49.8941 33.95C50.8241 33.95 51.3141 34.82 51.3141 36.52C51.3141 38.22 50.8241 39.1 49.8941 39.1ZM49.8941 38.47C50.4041 38.47 50.6541 37.86 50.6541 36.52C50.6541 35.19 50.4041 34.58 49.8941 34.58C49.3841 34.58 49.1341 35.19 49.1341 36.52C49.1341 37.86 49.3841 38.47 49.8941 38.47ZM53.3609 39.1C52.4409 39.1 51.9509 38.22 51.9509 36.52C51.9509 34.82 52.4409 33.95 53.3609 33.95C54.2909 33.95 54.7809 34.82 54.7809 36.52C54.7809 38.22 54.2909 39.1 53.3609 39.1ZM53.3609 38.47C53.8709 38.47 54.1209 37.86 54.1209 36.52C54.1209 35.19 53.8709 34.58 53.3609 34.58C52.8509 34.58 52.6009 35.19 52.6009 36.52C52.6009 37.86 52.8509 38.47 53.3609 38.47ZM55.5777 39V31.9H56.2277V36.24L57.6077 34.05H58.3477L57.2377 35.74L58.3577 39H57.6777L56.7977 36.38L56.2277 37.24V39H55.5777ZM59.6577 39.1C59.3077 39.1 58.9577 38.94 58.7577 38.68V37.83C58.9477 38.2 59.2977 38.45 59.6377 38.45C59.9877 38.45 60.2277 38.14 60.2277 37.68C60.2277 37.37 60.1577 37.15 59.6777 36.79L59.4377 36.61C58.9577 36.25 58.7577 35.88 58.7577 35.32C58.7577 34.51 59.2577 33.95 59.9577 33.95C60.2577 33.95 60.5377 34.06 60.7177 34.24V35C60.5477 34.76 60.2577 34.59 59.9977 34.59C59.6477 34.59 59.4077 34.87 59.4077 35.29C59.4077 35.6 59.4877 35.79 59.9677 36.15L60.2077 36.33C60.6877 36.69 60.8777 37.08 60.8777 37.65C60.8777 38.5 60.3777 39.1 59.6577 39.1ZM62.5826 37.45V35.86H61.2626V35.25H62.5826V33.66H63.2226V35.25H64.5426V35.86H63.2226V37.45H62.5826ZM65.0282 39.88C65.3382 39.83 65.4882 39.59 65.4882 39.18V39H65.0582V38.12H65.8782V39.09C65.8782 39.79 65.5882 40.19 65.0282 40.26V39.88ZM69.4452 39.09C68.9752 39.09 68.6452 38.72 68.4152 37.99V40.94H67.7652V34.05H68.4152V35.06C68.6452 34.33 68.9752 33.96 69.4452 33.96C70.1952 33.96 70.6152 34.86 70.6152 36.52C70.6152 38.19 70.1952 39.09 69.4452 39.09ZM69.3152 38.47C69.7152 38.47 69.9552 37.79 69.9552 36.52C69.9552 35.26 69.7152 34.58 69.3152 34.58C68.8952 34.58 68.5352 35.33 68.3752 36.52C68.5352 37.72 68.8952 38.47 69.3152 38.47ZM72.3173 39.1C71.7673 39.1 71.4173 38.67 71.4173 37.94V34.05H72.0773V37.77C72.0773 38.22 72.2273 38.45 72.5273 38.45C72.8873 38.45 73.1673 38.11 73.3673 37.46V34.05H74.0173V39H73.3673V38.17C73.1473 38.76 72.7773 39.1 72.3173 39.1ZM74.982 39V34.05H75.582V34.91C75.762 34.28 76.002 33.98 76.362 33.98C76.472 33.98 76.562 34.01 76.622 34.05L76.732 34.77C76.652 34.71 76.542 34.67 76.422 34.67C76.022 34.67 75.732 35.1 75.642 35.81V39H74.982ZM78.3995 39.1C77.4995 39.1 77.0095 38.22 77.0095 36.53C77.0095 34.83 77.4995 33.96 78.3995 33.96C78.7295 33.96 78.9895 34.07 79.1595 34.25V35.05C79.0195 34.78 78.7695 34.61 78.4795 34.61C77.9395 34.61 77.6695 35.25 77.6695 36.53C77.6695 37.8 77.9395 38.44 78.4795 38.44C78.7595 38.44 78.9995 38.29 79.1595 38.01V38.8C78.9895 38.98 78.7195 39.1 78.3995 39.1ZM79.9429 39V31.9H80.5929V34.85C80.8229 34.28 81.1929 33.95 81.6429 33.95C82.1929 33.95 82.5429 34.38 82.5429 35.11V39H81.8829V35.28C81.8829 34.83 81.7329 34.6 81.4329 34.6C81.0729 34.6 80.7929 34.94 80.5929 35.59V39H79.9429ZM84.3676 39.07C83.7676 39.07 83.3076 38.45 83.3076 37.6C83.3076 36.59 83.9276 35.91 84.8376 35.91H85.1876V35.52C85.1876 34.9 84.9876 34.59 84.5576 34.59C84.1476 34.59 83.7676 34.86 83.4976 35.32V34.52C83.7576 34.17 84.1976 33.95 84.6576 33.95C85.4176 33.95 85.8276 34.51 85.8276 35.5V38.57C85.8276 38.73 85.8376 38.87 85.8476 39H85.2076V38.34C85.0376 38.79 84.7476 39.07 84.3676 39.07ZM84.4976 38.47C84.8076 38.47 85.0476 38.14 85.1876 37.62V36.49H84.8576C84.2876 36.49 83.9476 36.9 83.9476 37.57C83.9476 38.12 84.1676 38.47 84.4976 38.47ZM87.5191 39.1C87.1691 39.1 86.8191 38.94 86.6191 38.68V37.83C86.8091 38.2 87.1591 38.45 87.4991 38.45C87.8491 38.45 88.0891 38.14 88.0891 37.68C88.0891 37.37 88.0191 37.15 87.5391 36.79L87.2991 36.61C86.8191 36.25 86.6191 35.88 86.6191 35.32C86.6191 34.51 87.1191 33.95 87.8191 33.95C88.1191 33.95 88.3991 34.06 88.5791 34.24V35C88.4091 34.76 88.1191 34.59 87.8591 34.59C87.5091 34.59 87.2691 34.87 87.2691 35.29C87.2691 35.6 87.3491 35.79 87.8291 36.15L88.0691 36.33C88.5491 36.69 88.7391 37.08 88.7391 37.65C88.7391 38.5 88.2391 39.1 87.5191 39.1ZM90.3539 39.07C89.7539 39.07 89.2939 38.45 89.2939 37.6C89.2939 36.59 89.9139 35.91 90.8239 35.91H91.1739V35.52C91.1739 34.9 90.9739 34.59 90.5439 34.59C90.1339 34.59 89.7539 34.86 89.4839 35.32V34.52C89.7439 34.17 90.1839 33.95 90.6439 33.95C91.4039 33.95 91.8139 34.51 91.8139 35.5V38.57C91.8139 38.73 91.8239 38.87 91.8339 39H91.1939V38.34C91.0239 38.79 90.7339 39.07 90.3539 39.07ZM90.4839 38.47C90.7939 38.47 91.0339 38.14 91.1739 37.62V36.49H90.8439C90.2739 36.49 89.9339 36.9 89.9339 37.57C89.9339 38.12 90.1539 38.47 90.4839 38.47ZM94.4354 39.09C93.9654 39.09 93.6354 38.72 93.4054 37.99V39H92.7554V31.9H93.4054V35.06C93.6354 34.33 93.9654 33.96 94.4354 33.96C95.1854 33.96 95.6054 34.86 95.6054 36.52C95.6054 38.19 95.1854 39.09 94.4354 39.09ZM94.3054 38.47C94.7054 38.47 94.9454 37.79 94.9454 36.52C94.9454 35.26 94.7054 34.58 94.3054 34.58C93.8854 34.58 93.5254 35.33 93.3654 36.52C93.5254 37.72 93.8854 38.47 94.3054 38.47ZM96.4175 39V31.9H97.0675V39H96.4175ZM99.2588 39.1C98.3488 39.1 97.8688 38.22 97.8688 36.53C97.8688 34.82 98.3488 33.95 99.2288 33.95C100.099 33.95 100.569 34.8 100.569 36.36V36.65H98.5088C98.5188 37.91 98.7688 38.49 99.2688 38.49C99.6588 38.49 99.8788 38.12 99.9488 37.38H100.569C100.469 38.5 100.019 39.1 99.2588 39.1ZM98.5188 36.06H99.9288C99.8988 35.06 99.6588 34.55 99.2288 34.55C98.8088 34.55 98.5588 35.03 98.5188 36.06ZM103.43 39.07C102.83 39.07 102.37 38.45 102.37 37.6C102.37 36.59 102.99 35.91 103.9 35.91H104.25V35.52C104.25 34.9 104.05 34.59 103.62 34.59C103.21 34.59 102.83 34.86 102.56 35.32V34.52C102.82 34.17 103.26 33.95 103.72 33.95C104.48 33.95 104.89 34.51 104.89 35.5V38.57C104.89 38.73 104.9 38.87 104.91 39H104.27V38.34C104.1 38.79 103.81 39.07 103.43 39.07ZM103.56 38.47C103.87 38.47 104.11 38.14 104.25 37.62V36.49H103.92C103.35 36.49 103.01 36.9 103.01 37.57C103.01 38.12 103.23 38.47 103.56 38.47ZM105.832 39V34.05H106.482V34.85C106.712 34.28 107.082 33.95 107.532 33.95C108.082 33.95 108.432 34.38 108.432 35.11V39H107.772V35.28C107.772 34.83 107.622 34.6 107.322 34.6C106.962 34.6 106.682 34.94 106.482 35.59V39H105.832ZM110.406 39.09C109.656 39.09 109.236 38.19 109.236 36.52C109.236 34.86 109.656 33.96 110.406 33.96C110.876 33.96 111.206 34.33 111.436 35.06V31.9H112.086V39H111.436V37.99C111.206 38.72 110.876 39.09 110.406 39.09ZM110.536 38.47C110.956 38.47 111.316 37.72 111.476 36.52C111.316 35.33 110.956 34.58 110.536 34.58C110.136 34.58 109.896 35.26 109.896 36.52C109.896 37.79 110.136 38.47 110.536 38.47ZM115.46 39.1C114.56 39.1 114.07 38.22 114.07 36.53C114.07 34.83 114.56 33.96 115.46 33.96C115.79 33.96 116.05 34.07 116.22 34.25V35.05C116.08 34.78 115.83 34.61 115.54 34.61C115 34.61 114.73 35.25 114.73 36.53C114.73 37.8 115 38.44 115.54 38.44C115.82 38.44 116.06 38.29 116.22 38.01V38.8C116.05 38.98 115.78 39.1 115.46 39.1ZM117.873 39.07C117.273 39.07 116.813 38.45 116.813 37.6C116.813 36.59 117.433 35.91 118.343 35.91H118.693V35.52C118.693 34.9 118.493 34.59 118.063 34.59C117.653 34.59 117.273 34.86 117.003 35.32V34.52C117.263 34.17 117.703 33.95 118.163 33.95C118.923 33.95 119.333 34.51 119.333 35.5V38.57C119.333 38.73 119.343 38.87 119.353 39H118.713V38.34C118.543 38.79 118.253 39.07 117.873 39.07ZM118.003 38.47C118.313 38.47 118.553 38.14 118.693 37.62V36.49H118.363C117.793 36.49 117.453 36.9 117.453 37.57C117.453 38.12 117.673 38.47 118.003 38.47ZM120.275 39V34.05H120.925V34.85C121.155 34.28 121.525 33.95 121.975 33.95C122.525 33.95 122.875 34.38 122.875 35.11V39H122.215V35.28C122.215 34.83 122.065 34.6 121.765 34.6C121.405 34.6 121.125 34.94 120.925 35.59V39H120.275ZM125.06 39.1C124.16 39.1 123.67 38.22 123.67 36.53C123.67 34.83 124.16 33.96 125.06 33.96C125.39 33.96 125.65 34.07 125.82 34.25V35.05C125.68 34.78 125.43 34.61 125.14 34.61C124.6 34.61 124.33 35.25 124.33 36.53C124.33 37.8 124.6 38.44 125.14 38.44C125.42 38.44 125.66 38.29 125.82 38.01V38.8C125.65 38.98 125.38 39.1 125.06 39.1ZM127.784 39.1C126.874 39.1 126.394 38.22 126.394 36.53C126.394 34.82 126.874 33.95 127.754 33.95C128.624 33.95 129.094 34.8 129.094 36.36V36.65H127.034C127.044 37.91 127.294 38.49 127.794 38.49C128.184 38.49 128.404 38.12 128.474 37.38H129.094C128.994 38.5 128.544 39.1 127.784 39.1ZM127.044 36.06H128.454C128.424 35.06 128.184 34.55 127.754 34.55C127.334 34.55 127.084 35.03 127.044 36.06ZM129.904 39V31.9H130.554V39H129.904ZM131.515 39V31.9H132.165V39H131.515ZM133.996 39.07C133.396 39.07 132.936 38.45 132.936 37.6C132.936 36.59 133.556 35.91 134.466 35.91H134.816V35.52C134.816 34.9 134.616 34.59 134.186 34.59C133.776 34.59 133.396 34.86 133.126 35.32V34.52C133.386 34.17 133.826 33.95 134.286 33.95C135.046 33.95 135.456 34.51 135.456 35.5V38.57C135.456 38.73 135.466 38.87 135.476 39H134.836V38.34C134.666 38.79 134.376 39.07 133.996 39.07ZM134.126 38.47C134.436 38.47 134.676 38.14 134.816 37.62V36.49H134.486C133.916 36.49 133.576 36.9 133.576 37.57C133.576 38.12 133.796 38.47 134.126 38.47ZM138.078 39.09C137.608 39.09 137.278 38.72 137.048 37.99V39H136.398V31.9H137.048V35.06C137.278 34.33 137.608 33.96 138.078 33.96C138.828 33.96 139.248 34.86 139.248 36.52C139.248 38.19 138.828 39.09 138.078 39.09ZM137.948 38.47C138.348 38.47 138.588 37.79 138.588 36.52C138.588 35.26 138.348 34.58 137.948 34.58C137.528 34.58 137.168 35.33 137.008 36.52C137.168 37.72 137.528 38.47 137.948 38.47ZM140.06 39V31.9H140.71V39H140.06ZM142.901 39.1C141.991 39.1 141.511 38.22 141.511 36.53C141.511 34.82 141.991 33.95 142.871 33.95C143.741 33.95 144.211 34.8 144.211 36.36V36.65H142.151C142.161 37.91 142.411 38.49 142.911 38.49C143.301 38.49 143.521 38.12 143.591 37.38H144.211C144.111 38.5 143.661 39.1 142.901 39.1ZM142.161 36.06H143.571C143.541 35.06 143.301 34.55 142.871 34.55C142.451 34.55 142.201 35.03 142.161 36.06ZM1.13 53L0.18 48.05H0.83L1.51 52.09L2.22 48.05H2.86L3.53 52.1L4.25 48.05H4.88L3.89 53H3.18L2.53 49.19L1.85 53H1.13ZM5.52883 53V48.05H6.18883V53H5.52883ZM5.86883 46.97C5.60883 46.97 5.42883 46.77 5.42883 46.51C5.42883 46.25 5.60883 46.05 5.86883 46.05C6.10883 46.05 6.28883 46.25 6.28883 46.51C6.28883 46.77 6.10883 46.97 5.86883 46.97ZM8.28992 53.08C7.69992 53.08 7.37992 52.69 7.37992 51.99V48.66H6.77992V48.31L8.02992 47.08H8.03992V48.05H8.88992V48.66H8.03992V51.88C8.03992 52.31 8.18992 52.44 8.46992 52.44C8.65992 52.44 8.84992 52.38 8.99992 52.25L8.86992 52.9C8.75992 53.01 8.53992 53.08 8.28992 53.08ZM9.61086 53V45.9H10.2609V48.85C10.4909 48.28 10.8609 47.95 11.3109 47.95C11.8609 47.95 12.2109 48.38 12.2109 49.11V53H11.5509V49.28C11.5509 48.83 11.4009 48.6 11.1009 48.6C10.7409 48.6 10.4609 48.94 10.2609 49.59V53H9.61086ZM14.4155 53.1C13.4955 53.1 13.0055 52.22 13.0055 50.52C13.0055 48.82 13.4955 47.95 14.4155 47.95C15.3455 47.95 15.8355 48.82 15.8355 50.52C15.8355 52.22 15.3455 53.1 14.4155 53.1ZM14.4155 52.47C14.9255 52.47 15.1755 51.86 15.1755 50.52C15.1755 49.19 14.9255 48.58 14.4155 48.58C13.9055 48.58 13.6555 49.19 13.6555 50.52C13.6555 51.86 13.9055 52.47 14.4155 52.47ZM17.5223 53.1C16.9723 53.1 16.6223 52.67 16.6223 51.94V48.05H17.2823V51.77C17.2823 52.22 17.4323 52.45 17.7323 52.45C18.0923 52.45 18.3723 52.11 18.5723 51.46V48.05H19.2223V53H18.5723V52.17C18.3523 52.76 17.9823 53.1 17.5223 53.1ZM21.327 53.08C20.737 53.08 20.417 52.69 20.417 51.99V48.66H19.817V48.31L21.067 47.08H21.077V48.05H21.927V48.66H21.077V51.88C21.077 52.31 21.227 52.44 21.507 52.44C21.697 52.44 21.887 52.38 22.037 52.25L21.907 52.9C21.797 53.01 21.577 53.08 21.327 53.08ZM24.9696 53.08C24.3796 53.08 24.0596 52.69 24.0596 51.99V48.66H23.4596V48.31L24.7096 47.08H24.7196V48.05H25.5696V48.66H24.7196V51.88C24.7196 52.31 24.8696 52.44 25.1496 52.44C25.3396 52.44 25.5296 52.38 25.6796 52.25L25.5496 52.9C25.4396 53.01 25.2196 53.08 24.9696 53.08ZM27.4917 53.1C26.5717 53.1 26.0817 52.22 26.0817 50.52C26.0817 48.82 26.5717 47.95 27.4917 47.95C28.4217 47.95 28.9117 48.82 28.9117 50.52C28.9117 52.22 28.4217 53.1 27.4917 53.1ZM27.4917 52.47C28.0017 52.47 28.2517 51.86 28.2517 50.52C28.2517 49.19 28.0017 48.58 27.4917 48.58C26.9817 48.58 26.7317 49.19 26.7317 50.52C26.7317 51.86 26.9817 52.47 27.4917 52.47ZM30.5985 53.1C30.0485 53.1 29.6985 52.67 29.6985 51.94V48.05H30.3585V51.77C30.3585 52.22 30.5085 52.45 30.8085 52.45C31.1685 52.45 31.4485 52.11 31.6485 51.46V48.05H32.2985V53H31.6485V52.17C31.4285 52.76 31.0585 53.1 30.5985 53.1ZM34.4932 53.1C33.5932 53.1 33.1032 52.22 33.1032 50.53C33.1032 48.83 33.5932 47.96 34.4932 47.96C34.8232 47.96 35.0832 48.07 35.2532 48.25V49.05C35.1132 48.78 34.8632 48.61 34.5732 48.61C34.0332 48.61 33.7632 49.25 33.7632 50.53C33.7632 51.8 34.0332 52.44 34.5732 52.44C34.8532 52.44 35.0932 52.29 35.2532 52.01V52.8C35.0832 52.98 34.8132 53.1 34.4932 53.1ZM36.0366 53V45.9H36.6866V48.85C36.9166 48.28 37.2866 47.95 37.7366 47.95C38.2866 47.95 38.6366 48.38 38.6366 49.11V53H37.9766V49.28C37.9766 48.83 37.8266 48.6 37.5266 48.6C37.1666 48.6 36.8866 48.94 36.6866 49.59V53H36.0366ZM39.5913 53V48.05H40.2513V53H39.5913ZM39.9313 46.97C39.6713 46.97 39.4913 46.77 39.4913 46.51C39.4913 46.25 39.6713 46.05 39.9313 46.05C40.1713 46.05 40.3513 46.25 40.3513 46.51C40.3513 46.77 40.1713 46.97 39.9313 46.97ZM41.2124 53V48.05H41.8624V48.85C42.0924 48.28 42.4624 47.95 42.9124 47.95C43.4624 47.95 43.8124 48.38 43.8124 49.11V53H43.1524V49.28C43.1524 48.83 43.0024 48.6 42.7024 48.6C42.3424 48.6 42.0624 48.94 41.8624 49.59V53H41.2124ZM46.0771 55C45.3371 55 44.8471 54.55 44.7471 53.69H45.3971C45.4671 54.17 45.7171 54.4 46.0771 54.4C46.5671 54.4 46.8171 53.95 46.8171 53.02V51.99C46.5871 52.72 46.2571 53.09 45.7871 53.09C45.0371 53.09 44.6171 52.19 44.6171 50.52C44.6171 48.86 45.0371 47.96 45.7871 47.96C46.2571 47.96 46.5871 48.33 46.8171 49.06V48.05H47.4671V52.97C47.4671 54.31 46.9971 55 46.0771 55ZM45.9171 52.47C46.3371 52.47 46.6971 51.72 46.8571 50.52C46.6971 49.33 46.3371 48.58 45.9171 48.58C45.5171 48.58 45.2771 49.26 45.2771 50.52C45.2771 51.79 45.5171 52.47 45.9171 52.47ZM50.7509 53.08C50.1609 53.08 49.8409 52.69 49.8409 51.99V48.66H49.2409V48.31L50.4909 47.08H50.5009V48.05H51.3509V48.66H50.5009V51.88C50.5009 52.31 50.6509 52.44 50.9309 52.44C51.1209 52.44 51.3109 52.38 51.4609 52.25L51.3309 52.9C51.2209 53.01 51.0009 53.08 50.7509 53.08ZM52.0718 53V45.9H52.7218V48.85C52.9518 48.28 53.3218 47.95 53.7718 47.95C54.3218 47.95 54.6718 48.38 54.6718 49.11V53H54.0118V49.28C54.0118 48.83 53.8618 48.6 53.5618 48.6C53.2018 48.6 52.9218 48.94 52.7218 49.59V53H52.0718ZM56.8565 53.1C55.9465 53.1 55.4665 52.22 55.4665 50.53C55.4665 48.82 55.9465 47.95 56.8265 47.95C57.6965 47.95 58.1665 48.8 58.1665 50.36V50.65H56.1065C56.1165 51.91 56.3665 52.49 56.8665 52.49C57.2565 52.49 57.4765 52.12 57.5465 51.38H58.1665C58.0665 52.5 57.6165 53.1 56.8565 53.1ZM56.1165 50.06H57.5265C57.4965 49.06 57.2565 48.55 56.8265 48.55C56.4065 48.55 56.1565 49.03 56.1165 50.06ZM61.8377 53.09C61.3677 53.09 61.0377 52.72 60.8077 51.99V53H60.1577V45.9H60.8077V49.06C61.0377 48.33 61.3677 47.96 61.8377 47.96C62.5877 47.96 63.0077 48.86 63.0077 50.52C63.0077 52.19 62.5877 53.09 61.8377 53.09ZM61.7077 52.47C62.1077 52.47 62.3477 51.79 62.3477 50.52C62.3477 49.26 62.1077 48.58 61.7077 48.58C61.2877 48.58 60.9277 49.33 60.7677 50.52C60.9277 51.72 61.2877 52.47 61.7077 52.47ZM64.6898 53.07C64.0898 53.07 63.6298 52.45 63.6298 51.6C63.6298 50.59 64.2498 49.91 65.1598 49.91H65.5098V49.52C65.5098 48.9 65.3098 48.59 64.8798 48.59C64.4698 48.59 64.0898 48.86 63.8198 49.32V48.52C64.0798 48.17 64.5198 47.95 64.9798 47.95C65.7398 47.95 66.1498 48.51 66.1498 49.5V52.57C66.1498 52.73 66.1598 52.87 66.1698 53H65.5298V52.34C65.3598 52.79 65.0698 53.07 64.6898 53.07ZM64.8198 52.47C65.1298 52.47 65.3698 52.14 65.5098 51.62V50.49H65.1798C64.6098 50.49 64.2698 50.9 64.2698 51.57C64.2698 52.12 64.4898 52.47 64.8198 52.47ZM67.8413 53.1C67.4913 53.1 67.1413 52.94 66.9413 52.68V51.83C67.1313 52.2 67.4813 52.45 67.8213 52.45C68.1713 52.45 68.4113 52.14 68.4113 51.68C68.4113 51.37 68.3413 51.15 67.8613 50.79L67.6213 50.61C67.1413 50.25 66.9413 49.88 66.9413 49.32C66.9413 48.51 67.4413 47.95 68.1413 47.95C68.4413 47.95 68.7213 48.06 68.9013 48.24V49C68.7313 48.76 68.4413 48.59 68.1813 48.59C67.8313 48.59 67.5913 48.87 67.5913 49.29C67.5913 49.6 67.6713 49.79 68.1513 50.15L68.3913 50.33C68.8713 50.69 69.0613 51.08 69.0613 51.65C69.0613 52.5 68.5613 53.1 67.8413 53.1ZM71.0362 53.1C70.1262 53.1 69.6462 52.22 69.6462 50.53C69.6462 48.82 70.1262 47.95 71.0062 47.95C71.8762 47.95 72.3462 48.8 72.3462 50.36V50.65H70.2862C70.2962 51.91 70.5462 52.49 71.0462 52.49C71.4362 52.49 71.6562 52.12 71.7262 51.38H72.3462C72.2462 52.5 71.7962 53.1 71.0362 53.1ZM70.2962 50.06H71.7062C71.6762 49.06 71.4362 48.55 71.0062 48.55C70.5862 48.55 70.3362 49.03 70.2962 50.06ZM75.0874 53.1C74.7374 53.1 74.3874 52.94 74.1874 52.68V51.83C74.3774 52.2 74.7274 52.45 75.0674 52.45C75.4174 52.45 75.6574 52.14 75.6574 51.68C75.6574 51.37 75.5874 51.15 75.1074 50.79L74.8674 50.61C74.3874 50.25 74.1874 49.88 74.1874 49.32C74.1874 48.51 74.6874 47.95 75.3874 47.95C75.6874 47.95 75.9674 48.06 76.1474 48.24V49C75.9774 48.76 75.6874 48.59 75.4274 48.59C75.0774 48.59 74.8374 48.87 74.8374 49.29C74.8374 49.6 74.9174 49.79 75.3974 50.15L75.6374 50.33C76.1174 50.69 76.3074 51.08 76.3074 51.65C76.3074 52.5 75.8074 53.1 75.0874 53.1ZM77.9423 53.1C77.3923 53.1 77.0423 52.67 77.0423 51.94V48.05H77.7023V51.77C77.7023 52.22 77.8523 52.45 78.1523 52.45C78.5123 52.45 78.7923 52.11 78.9923 51.46V48.05H79.6423V53H78.9923V52.17C78.7723 52.76 78.4023 53.1 77.9423 53.1ZM82.287 53.09C81.817 53.09 81.487 52.72 81.257 51.99V53H80.607V45.9H81.257V49.06C81.487 48.33 81.817 47.96 82.287 47.96C83.037 47.96 83.457 48.86 83.457 50.52C83.457 52.19 83.037 53.09 82.287 53.09ZM82.157 52.47C82.557 52.47 82.797 51.79 82.797 50.52C82.797 49.26 82.557 48.58 82.157 48.58C81.737 48.58 81.377 49.33 81.217 50.52C81.377 51.72 81.737 52.47 82.157 52.47ZM85.0191 53.1C84.6691 53.1 84.3191 52.94 84.1191 52.68V51.83C84.3091 52.2 84.6591 52.45 84.9991 52.45C85.3491 52.45 85.5891 52.14 85.5891 51.68C85.5891 51.37 85.5191 51.15 85.0391 50.79L84.7991 50.61C84.3191 50.25 84.1191 49.88 84.1191 49.32C84.1191 48.51 84.6191 47.95 85.3191 47.95C85.6191 47.95 85.8991 48.06 86.0791 48.24V49C85.9091 48.76 85.6191 48.59 85.3591 48.59C85.0091 48.59 84.7691 48.87 84.7691 49.29C84.7691 49.6 84.8491 49.79 85.3291 50.15L85.5691 50.33C86.0491 50.69 86.2391 51.08 86.2391 51.65C86.2391 52.5 85.7391 53.1 85.0191 53.1ZM88.2139 53.1C87.3139 53.1 86.8239 52.22 86.8239 50.53C86.8239 48.83 87.3139 47.96 88.2139 47.96C88.5439 47.96 88.8039 48.07 88.9739 48.25V49.05C88.8339 48.78 88.5839 48.61 88.2939 48.61C87.7539 48.61 87.4839 49.25 87.4839 50.53C87.4839 51.8 87.7539 52.44 88.2939 52.44C88.5739 52.44 88.8139 52.29 88.9739 52.01V52.8C88.8039 52.98 88.5339 53.1 88.2139 53.1ZM89.7573 53V48.05H90.3573V48.91C90.5373 48.28 90.7773 47.98 91.1373 47.98C91.2473 47.98 91.3373 48.01 91.3973 48.05L91.5073 48.77C91.4273 48.71 91.3173 48.67 91.1973 48.67C90.7973 48.67 90.5073 49.1 90.4173 49.81V53H89.7573ZM92.1011 53V48.05H92.7611V53H92.1011ZM92.4411 46.97C92.1811 46.97 92.0011 46.77 92.0011 46.51C92.0011 46.25 92.1811 46.05 92.4411 46.05C92.6811 46.05 92.8611 46.25 92.8611 46.51C92.8611 46.77 92.6811 46.97 92.4411 46.97ZM95.4022 53.09C94.9322 53.09 94.6022 52.72 94.3722 51.99V54.94H93.7222V48.05H94.3722V49.06C94.6022 48.33 94.9322 47.96 95.4022 47.96C96.1522 47.96 96.5722 48.86 96.5722 50.52C96.5722 52.19 96.1522 53.09 95.4022 53.09ZM95.2722 52.47C95.6722 52.47 95.9122 51.79 95.9122 50.52C95.9122 49.26 95.6722 48.58 95.2722 48.58C94.8522 48.58 94.4922 49.33 94.3322 50.52C94.4922 51.72 94.8522 52.47 95.2722 52.47ZM98.495 53.08C97.905 53.08 97.585 52.69 97.585 51.99V48.66H96.985V48.31L98.235 47.08H98.245V48.05H99.095V48.66H98.245V51.88C98.245 52.31 98.395 52.44 98.675 52.44C98.865 52.44 99.055 52.38 99.205 52.25L99.075 52.9C98.965 53.01 98.745 53.08 98.495 53.08ZM99.8159 53V48.05H100.476V53H99.8159ZM100.156 46.97C99.8959 46.97 99.7159 46.77 99.7159 46.51C99.7159 46.25 99.8959 46.05 100.156 46.05C100.396 46.05 100.576 46.25 100.576 46.51C100.576 46.77 100.396 46.97 100.156 46.97ZM102.687 53.1C101.767 53.1 101.277 52.22 101.277 50.52C101.277 48.82 101.767 47.95 102.687 47.95C103.617 47.95 104.107 48.82 104.107 50.52C104.107 52.22 103.617 53.1 102.687 53.1ZM102.687 52.47C103.197 52.47 103.447 51.86 103.447 50.52C103.447 49.19 103.197 48.58 102.687 48.58C102.177 48.58 101.927 49.19 101.927 50.52C101.927 51.86 102.177 52.47 102.687 52.47ZM104.904 53V48.05H105.554V48.85C105.784 48.28 106.154 47.95 106.604 47.95C107.154 47.95 107.504 48.38 107.504 49.11V53H106.844V49.28C106.844 48.83 106.694 48.6 106.394 48.6C106.034 48.6 105.754 48.94 105.554 49.59V53H104.904Z" fill="white"/>
</svg>
